<mxfile host="Electron" agent="Mozilla/5.0 (Windows NT 10.0; Win64; x64) AppleWebKit/537.36 (KHTML, like Gecko) draw.io/24.7.17 Chrome/128.0.6613.36 Electron/32.0.1 Safari/537.36" version="24.7.17">
  <diagram id="C5RBs43oDa-KdzZeNtuy" name="Page-1">
    <mxGraphModel dx="1274" dy="30436" grid="1" gridSize="10" guides="1" tooltips="1" connect="1" arrows="1" fold="1" page="0" pageScale="1" pageWidth="10000" pageHeight="10000" math="0" shadow="0">
      <root>
        <object label="" id="WIyWlLk6GJQsqaUBKTNV-0">
          <mxCell />
        </object>
        <mxCell id="WIyWlLk6GJQsqaUBKTNV-1" parent="WIyWlLk6GJQsqaUBKTNV-0" />
        <mxCell id="zbg4pSojLmp6s8H_3mv2-16" value="FLOWCHART MANAJEMEN RENTAL KENDARAAN" style="text;html=1;align=center;verticalAlign=middle;resizable=0;points=[];autosize=1;strokeColor=#D0CEE2;fillColor=#FAD9D5;fontSize=16;labelBackgroundColor=none;fontStyle=1;fontColor=#1A1A1A;" parent="WIyWlLk6GJQsqaUBKTNV-1" vertex="1">
          <mxGeometry x="2612.5" y="-29520" width="400" height="30" as="geometry" />
        </mxCell>
        <mxCell id="zbg4pSojLmp6s8H_3mv2-17" value="" style="edgeStyle=orthogonalEdgeStyle;rounded=0;orthogonalLoop=1;jettySize=auto;html=1;labelBackgroundColor=none;strokeColor=#09555B;fontColor=default;align=center;" parent="WIyWlLk6GJQsqaUBKTNV-1" source="zbg4pSojLmp6s8H_3mv2-18" target="zbg4pSojLmp6s8H_3mv2-20" edge="1">
          <mxGeometry relative="1" as="geometry" />
        </mxCell>
        <mxCell id="zbg4pSojLmp6s8H_3mv2-18" value="&lt;font color=&quot;#000000&quot;&gt;START&lt;/font&gt;" style="strokeWidth=2;html=1;shape=mxgraph.flowchart.terminator;whiteSpace=wrap;align=center;fillColor=#FAD9D5;strokeColor=#D0CEE2;fontStyle=1;labelBackgroundColor=none;fontColor=#1A1A1A;" parent="WIyWlLk6GJQsqaUBKTNV-1" vertex="1">
          <mxGeometry x="2790" y="-29440" width="80" height="30" as="geometry" />
        </mxCell>
        <mxCell id="zbg4pSojLmp6s8H_3mv2-19" value="" style="edgeStyle=orthogonalEdgeStyle;rounded=0;orthogonalLoop=1;jettySize=auto;html=1;labelBackgroundColor=none;strokeColor=#09555B;fontColor=default;align=center;" parent="WIyWlLk6GJQsqaUBKTNV-1" source="zbg4pSojLmp6s8H_3mv2-20" target="zbg4pSojLmp6s8H_3mv2-23" edge="1">
          <mxGeometry relative="1" as="geometry" />
        </mxCell>
        <mxCell id="zbg4pSojLmp6s8H_3mv2-20" value="&lt;font style=&quot;font-size: 10px;&quot;&gt;Output Pilihan:&lt;/font&gt;&lt;div&gt;&lt;font style=&quot;font-size: 10px;&quot;&gt;1. Register&lt;/font&gt;&lt;/div&gt;&lt;div&gt;&lt;font style=&quot;font-size: 10px;&quot;&gt;2. Login&lt;/font&gt;&lt;/div&gt;&lt;div&gt;&lt;font style=&quot;font-size: 10px;&quot;&gt;3. Logout&lt;/font&gt;&lt;/div&gt;" style="shape=parallelogram;html=1;strokeWidth=2;perimeter=parallelogramPerimeter;whiteSpace=wrap;rounded=1;arcSize=12;size=0.23;align=center;fillColor=#FAD9D5;strokeColor=#D0CEE2;labelBackgroundColor=none;fontColor=#1A1A1A;" parent="WIyWlLk6GJQsqaUBKTNV-1" vertex="1">
          <mxGeometry x="2756.59" y="-29380" width="146.82" height="70" as="geometry" />
        </mxCell>
        <mxCell id="zbg4pSojLmp6s8H_3mv2-21" value="" style="edgeStyle=orthogonalEdgeStyle;rounded=0;orthogonalLoop=1;jettySize=auto;html=1;strokeColor=#09555B;fontColor=default;align=center;labelBackgroundColor=none;" parent="WIyWlLk6GJQsqaUBKTNV-1" source="zbg4pSojLmp6s8H_3mv2-23" target="zbg4pSojLmp6s8H_3mv2-25" edge="1">
          <mxGeometry relative="1" as="geometry" />
        </mxCell>
        <mxCell id="zbg4pSojLmp6s8H_3mv2-22" value="" style="edgeStyle=orthogonalEdgeStyle;rounded=0;orthogonalLoop=1;jettySize=auto;html=1;strokeColor=#09555B;fontColor=default;align=center;labelBackgroundColor=none;" parent="WIyWlLk6GJQsqaUBKTNV-1" source="zbg4pSojLmp6s8H_3mv2-23" target="zbg4pSojLmp6s8H_3mv2-27" edge="1">
          <mxGeometry relative="1" as="geometry" />
        </mxCell>
        <mxCell id="zbg4pSojLmp6s8H_3mv2-23" value="if = 1" style="strokeWidth=2;html=1;shape=mxgraph.flowchart.decision;whiteSpace=wrap;labelBackgroundColor=none;fillColor=#FAD9D5;strokeColor=#D0CEE2;fontColor=#1A1A1A;align=center;" parent="WIyWlLk6GJQsqaUBKTNV-1" vertex="1">
          <mxGeometry x="2776.8199999999997" y="-29290" width="106.37" height="60" as="geometry" />
        </mxCell>
        <mxCell id="zbg4pSojLmp6s8H_3mv2-24" value="" style="edgeStyle=orthogonalEdgeStyle;rounded=0;orthogonalLoop=1;jettySize=auto;html=1;strokeColor=#09555B;fontColor=default;align=center;labelBackgroundColor=none;" parent="WIyWlLk6GJQsqaUBKTNV-1" source="zbg4pSojLmp6s8H_3mv2-25" target="zbg4pSojLmp6s8H_3mv2-26" edge="1">
          <mxGeometry relative="1" as="geometry" />
        </mxCell>
        <mxCell id="zbg4pSojLmp6s8H_3mv2-45" value="" style="edgeStyle=orthogonalEdgeStyle;rounded=0;orthogonalLoop=1;jettySize=auto;html=1;strokeColor=#09555B;fontColor=default;labelBackgroundColor=none;" parent="WIyWlLk6GJQsqaUBKTNV-1" source="zbg4pSojLmp6s8H_3mv2-25" target="zbg4pSojLmp6s8H_3mv2-44" edge="1">
          <mxGeometry relative="1" as="geometry" />
        </mxCell>
        <mxCell id="zbg4pSojLmp6s8H_3mv2-25" value="if = 2" style="strokeWidth=2;html=1;shape=mxgraph.flowchart.decision;whiteSpace=wrap;labelBackgroundColor=none;fillColor=#FAD9D5;strokeColor=#D0CEE2;fontColor=#1A1A1A;align=center;" parent="WIyWlLk6GJQsqaUBKTNV-1" vertex="1">
          <mxGeometry x="2315" y="-29210" width="106.37" height="60" as="geometry" />
        </mxCell>
        <mxCell id="CRSx_ae5sVd4tHKQdAbA-90" value="" style="edgeStyle=orthogonalEdgeStyle;rounded=0;orthogonalLoop=1;jettySize=auto;html=1;strokeColor=#09555B;fontColor=default;labelBackgroundColor=none;" parent="WIyWlLk6GJQsqaUBKTNV-1" source="zbg4pSojLmp6s8H_3mv2-26" target="CRSx_ae5sVd4tHKQdAbA-89" edge="1">
          <mxGeometry relative="1" as="geometry" />
        </mxCell>
        <mxCell id="zbg4pSojLmp6s8H_3mv2-26" value="if = 3" style="strokeWidth=2;html=1;shape=mxgraph.flowchart.decision;whiteSpace=wrap;labelBackgroundColor=none;fillColor=#FAD9D5;strokeColor=#D0CEE2;fontColor=#1A1A1A;align=center;" parent="WIyWlLk6GJQsqaUBKTNV-1" vertex="1">
          <mxGeometry x="2020" y="-29132" width="106.37" height="60" as="geometry" />
        </mxCell>
        <mxCell id="zbg4pSojLmp6s8H_3mv2-30" value="" style="edgeStyle=orthogonalEdgeStyle;rounded=0;orthogonalLoop=1;jettySize=auto;html=1;strokeColor=#09555B;fontColor=default;labelBackgroundColor=none;" parent="WIyWlLk6GJQsqaUBKTNV-1" source="zbg4pSojLmp6s8H_3mv2-27" target="zbg4pSojLmp6s8H_3mv2-29" edge="1">
          <mxGeometry relative="1" as="geometry" />
        </mxCell>
        <mxCell id="zbg4pSojLmp6s8H_3mv2-27" value="&lt;font style=&quot;font-size: 11px;&quot;&gt;Input = new_user&lt;/font&gt;&lt;div style=&quot;font-size: 11px;&quot;&gt;&lt;font style=&quot;font-size: 11px;&quot;&gt;Input = new_password&lt;/font&gt;&lt;/div&gt;" style="shape=parallelogram;perimeter=parallelogramPerimeter;whiteSpace=wrap;html=1;fixedSize=1;fillColor=#FAD9D5;strokeColor=#D0CEE2;fontColor=#1A1A1A;strokeWidth=2;labelBackgroundColor=none;align=center;" parent="WIyWlLk6GJQsqaUBKTNV-1" vertex="1">
          <mxGeometry x="2935" y="-29230" width="143.63" height="60" as="geometry" />
        </mxCell>
        <mxCell id="zbg4pSojLmp6s8H_3mv2-35" value="" style="edgeStyle=orthogonalEdgeStyle;rounded=0;orthogonalLoop=1;jettySize=auto;html=1;strokeColor=#09555B;fontColor=default;labelBackgroundColor=none;entryX=0.5;entryY=1;entryDx=0;entryDy=0;" parent="WIyWlLk6GJQsqaUBKTNV-1" source="zbg4pSojLmp6s8H_3mv2-29" target="zbg4pSojLmp6s8H_3mv2-34" edge="1">
          <mxGeometry relative="1" as="geometry" />
        </mxCell>
        <mxCell id="zbg4pSojLmp6s8H_3mv2-41" value="" style="edgeStyle=orthogonalEdgeStyle;rounded=0;orthogonalLoop=1;jettySize=auto;html=1;strokeColor=#09555B;fontColor=default;labelBackgroundColor=none;" parent="WIyWlLk6GJQsqaUBKTNV-1" source="zbg4pSojLmp6s8H_3mv2-29" target="zbg4pSojLmp6s8H_3mv2-40" edge="1">
          <mxGeometry relative="1" as="geometry" />
        </mxCell>
        <mxCell id="zbg4pSojLmp6s8H_3mv2-29" value="if user == new_username for user in akun" style="rhombus;whiteSpace=wrap;html=1;fillColor=#FAD9D5;strokeColor=#D0CEE2;fontColor=#1A1A1A;strokeWidth=2;labelBackgroundColor=none;" parent="WIyWlLk6GJQsqaUBKTNV-1" vertex="1">
          <mxGeometry x="2862.34" y="-29072" width="288.95" height="100" as="geometry" />
        </mxCell>
        <mxCell id="zbg4pSojLmp6s8H_3mv2-32" value="True" style="text;html=1;align=center;verticalAlign=middle;resizable=0;points=[];autosize=1;strokeColor=none;fillColor=none;fontColor=#1A1A1A;labelBackgroundColor=none;" parent="WIyWlLk6GJQsqaUBKTNV-1" vertex="1">
          <mxGeometry x="2865" y="-29290" width="50" height="30" as="geometry" />
        </mxCell>
        <mxCell id="zbg4pSojLmp6s8H_3mv2-33" value="False" style="text;html=1;align=center;verticalAlign=middle;resizable=0;points=[];autosize=1;strokeColor=none;fillColor=none;fontColor=#1A1A1A;labelBackgroundColor=none;" parent="WIyWlLk6GJQsqaUBKTNV-1" vertex="1">
          <mxGeometry x="2705" y="-29290" width="50" height="30" as="geometry" />
        </mxCell>
        <mxCell id="zbg4pSojLmp6s8H_3mv2-34" value="Output &quot;Username sudah digunakan&quot;" style="shape=parallelogram;perimeter=parallelogramPerimeter;whiteSpace=wrap;html=1;fixedSize=1;fillColor=#FAD9D5;strokeColor=#D0CEE2;fontColor=#1A1A1A;strokeWidth=2;labelBackgroundColor=none;" parent="WIyWlLk6GJQsqaUBKTNV-1" vertex="1">
          <mxGeometry x="2710" y="-29130" width="130" height="60" as="geometry" />
        </mxCell>
        <mxCell id="zbg4pSojLmp6s8H_3mv2-39" value="" style="endArrow=classic;html=1;rounded=0;strokeColor=#09555B;fontColor=default;exitX=0.555;exitY=0.06;exitDx=0;exitDy=0;exitPerimeter=0;entryX=0.043;entryY=0.616;entryDx=0;entryDy=0;entryPerimeter=0;labelBackgroundColor=none;" parent="WIyWlLk6GJQsqaUBKTNV-1" source="zbg4pSojLmp6s8H_3mv2-34" target="zbg4pSojLmp6s8H_3mv2-27" edge="1">
          <mxGeometry width="50" height="50" relative="1" as="geometry">
            <mxPoint x="2990" y="-28970" as="sourcePoint" />
            <mxPoint x="2850" y="-29210" as="targetPoint" />
            <Array as="points">
              <mxPoint x="2782" y="-29190" />
            </Array>
          </mxGeometry>
        </mxCell>
        <mxCell id="zbg4pSojLmp6s8H_3mv2-40" value="Output &quot;Pendaftaran berhasil silahkan login&quot;" style="shape=parallelogram;perimeter=parallelogramPerimeter;whiteSpace=wrap;html=1;fixedSize=1;fillColor=#FAD9D5;strokeColor=#D0CEE2;fontColor=#1A1A1A;strokeWidth=2;labelBackgroundColor=none;" parent="WIyWlLk6GJQsqaUBKTNV-1" vertex="1">
          <mxGeometry x="3199.96" y="-29052" width="149.99" height="60" as="geometry" />
        </mxCell>
        <mxCell id="zbg4pSojLmp6s8H_3mv2-42" value="False" style="text;html=1;align=center;verticalAlign=middle;resizable=0;points=[];autosize=1;strokeColor=none;fillColor=none;fontColor=#1A1A1A;labelBackgroundColor=none;" parent="WIyWlLk6GJQsqaUBKTNV-1" vertex="1">
          <mxGeometry x="2803.8" y="-29050" width="50" height="30" as="geometry" />
        </mxCell>
        <mxCell id="zbg4pSojLmp6s8H_3mv2-43" value="True" style="text;html=1;align=center;verticalAlign=middle;resizable=0;points=[];autosize=1;strokeColor=none;fillColor=none;fontColor=#1A1A1A;labelBackgroundColor=none;" parent="WIyWlLk6GJQsqaUBKTNV-1" vertex="1">
          <mxGeometry x="3151.29" y="-29052" width="50" height="30" as="geometry" />
        </mxCell>
        <mxCell id="zbg4pSojLmp6s8H_3mv2-49" value="" style="edgeStyle=orthogonalEdgeStyle;rounded=0;orthogonalLoop=1;jettySize=auto;html=1;strokeColor=#09555B;fontColor=default;labelBackgroundColor=none;" parent="WIyWlLk6GJQsqaUBKTNV-1" source="zbg4pSojLmp6s8H_3mv2-44" target="zbg4pSojLmp6s8H_3mv2-48" edge="1">
          <mxGeometry relative="1" as="geometry">
            <Array as="points">
              <mxPoint x="2570" y="-28970" />
              <mxPoint x="2570" y="-28970" />
            </Array>
          </mxGeometry>
        </mxCell>
        <mxCell id="zbg4pSojLmp6s8H_3mv2-50" value="" style="edgeLabel;html=1;align=center;verticalAlign=middle;resizable=0;points=[];strokeColor=#D0CEE2;fontColor=#1A1A1A;fillColor=#FAD9D5;labelBackgroundColor=none;" parent="zbg4pSojLmp6s8H_3mv2-49" vertex="1" connectable="0">
          <mxGeometry x="-0.0011" y="-1" relative="1" as="geometry">
            <mxPoint as="offset" />
          </mxGeometry>
        </mxCell>
        <mxCell id="zbg4pSojLmp6s8H_3mv2-51" value="" style="edgeLabel;html=1;align=center;verticalAlign=middle;resizable=0;points=[];strokeColor=#D0CEE2;fontColor=#1A1A1A;fillColor=#FAD9D5;labelBackgroundColor=none;" parent="zbg4pSojLmp6s8H_3mv2-49" vertex="1" connectable="0">
          <mxGeometry x="-0.0381" relative="1" as="geometry">
            <mxPoint as="offset" />
          </mxGeometry>
        </mxCell>
        <mxCell id="zbg4pSojLmp6s8H_3mv2-44" value="Input = Username&lt;div&gt;Input Password&lt;/div&gt;" style="shape=parallelogram;perimeter=parallelogramPerimeter;whiteSpace=wrap;html=1;fixedSize=1;fillColor=#FAD9D5;strokeColor=#D0CEE2;fontColor=#1A1A1A;strokeWidth=2;labelBackgroundColor=none;" parent="WIyWlLk6GJQsqaUBKTNV-1" vertex="1">
          <mxGeometry x="2505" y="-29110" width="130" height="60" as="geometry" />
        </mxCell>
        <mxCell id="zbg4pSojLmp6s8H_3mv2-46" value="True" style="text;html=1;align=center;verticalAlign=middle;resizable=0;points=[];autosize=1;strokeColor=none;fillColor=none;fontColor=#1A1A1A;labelBackgroundColor=none;" parent="WIyWlLk6GJQsqaUBKTNV-1" vertex="1">
          <mxGeometry x="2415" y="-29210" width="50" height="30" as="geometry" />
        </mxCell>
        <mxCell id="zbg4pSojLmp6s8H_3mv2-47" value="False" style="text;html=1;align=center;verticalAlign=middle;resizable=0;points=[];autosize=1;strokeColor=none;fillColor=none;fontColor=#1A1A1A;labelBackgroundColor=none;" parent="WIyWlLk6GJQsqaUBKTNV-1" vertex="1">
          <mxGeometry x="2265" y="-29215" width="50" height="30" as="geometry" />
        </mxCell>
        <mxCell id="zbg4pSojLmp6s8H_3mv2-53" value="" style="edgeStyle=orthogonalEdgeStyle;rounded=0;orthogonalLoop=1;jettySize=auto;html=1;strokeColor=#09555B;fontColor=default;labelBackgroundColor=none;" parent="WIyWlLk6GJQsqaUBKTNV-1" source="zbg4pSojLmp6s8H_3mv2-48" target="zbg4pSojLmp6s8H_3mv2-52" edge="1">
          <mxGeometry relative="1" as="geometry" />
        </mxCell>
        <mxCell id="zbg4pSojLmp6s8H_3mv2-56" value="" style="edgeStyle=orthogonalEdgeStyle;rounded=0;orthogonalLoop=1;jettySize=auto;html=1;strokeColor=#09555B;fontColor=default;labelBackgroundColor=none;" parent="WIyWlLk6GJQsqaUBKTNV-1" source="zbg4pSojLmp6s8H_3mv2-48" target="zbg4pSojLmp6s8H_3mv2-55" edge="1">
          <mxGeometry relative="1" as="geometry" />
        </mxCell>
        <mxCell id="zbg4pSojLmp6s8H_3mv2-48" value="if user== Username and&lt;div&gt;&amp;nbsp;pw== Password&lt;/div&gt;" style="rhombus;whiteSpace=wrap;html=1;fillColor=#FAD9D5;strokeColor=#D0CEE2;fontColor=#1A1A1A;strokeWidth=2;labelBackgroundColor=none;" parent="WIyWlLk6GJQsqaUBKTNV-1" vertex="1">
          <mxGeometry x="2469.65" y="-28930" width="197.5" height="110" as="geometry" />
        </mxCell>
        <mxCell id="zbg4pSojLmp6s8H_3mv2-61" value="" style="edgeStyle=orthogonalEdgeStyle;rounded=0;orthogonalLoop=1;jettySize=auto;html=1;strokeColor=#09555B;fontColor=default;labelBackgroundColor=none;" parent="WIyWlLk6GJQsqaUBKTNV-1" source="zbg4pSojLmp6s8H_3mv2-52" target="zbg4pSojLmp6s8H_3mv2-60" edge="1">
          <mxGeometry relative="1" as="geometry" />
        </mxCell>
        <mxCell id="zbg4pSojLmp6s8H_3mv2-52" value="status = user[2]" style="whiteSpace=wrap;html=1;fillColor=#FAD9D5;strokeColor=#D0CEE2;fontColor=#1A1A1A;strokeWidth=2;labelBackgroundColor=none;" parent="WIyWlLk6GJQsqaUBKTNV-1" vertex="1">
          <mxGeometry x="2740" y="-28905" width="120" height="60" as="geometry" />
        </mxCell>
        <mxCell id="zbg4pSojLmp6s8H_3mv2-54" value="False" style="text;html=1;align=center;verticalAlign=middle;resizable=0;points=[];autosize=1;strokeColor=none;fillColor=none;fontColor=#1A1A1A;labelBackgroundColor=none;" parent="WIyWlLk6GJQsqaUBKTNV-1" vertex="1">
          <mxGeometry x="2630.05" y="-28640" width="50" height="30" as="geometry" />
        </mxCell>
        <mxCell id="hVhNkP9vZ8DlvybGVk7C-0" value="" style="edgeStyle=orthogonalEdgeStyle;rounded=0;orthogonalLoop=1;jettySize=auto;html=1;strokeColor=#09555B;fontColor=#1A1A1A;" parent="WIyWlLk6GJQsqaUBKTNV-1" source="zbg4pSojLmp6s8H_3mv2-55" target="zbg4pSojLmp6s8H_3mv2-44" edge="1">
          <mxGeometry relative="1" as="geometry" />
        </mxCell>
        <mxCell id="zbg4pSojLmp6s8H_3mv2-55" value="Output &quot;Login gagal! Username atau Password salah&quot;" style="shape=parallelogram;perimeter=parallelogramPerimeter;whiteSpace=wrap;html=1;fixedSize=1;fillColor=#FAD9D5;strokeColor=#D0CEE2;fontColor=#1A1A1A;strokeWidth=2;labelBackgroundColor=none;" parent="WIyWlLk6GJQsqaUBKTNV-1" vertex="1">
          <mxGeometry x="2268.75" y="-29117.5" width="167.5" height="75" as="geometry" />
        </mxCell>
        <mxCell id="zbg4pSojLmp6s8H_3mv2-63" value="" style="edgeStyle=orthogonalEdgeStyle;rounded=0;orthogonalLoop=1;jettySize=auto;html=1;strokeColor=#09555B;fontColor=default;labelBackgroundColor=none;" parent="WIyWlLk6GJQsqaUBKTNV-1" source="zbg4pSojLmp6s8H_3mv2-60" target="zbg4pSojLmp6s8H_3mv2-62" edge="1">
          <mxGeometry relative="1" as="geometry" />
        </mxCell>
        <mxCell id="zbg4pSojLmp6s8H_3mv2-60" value="Output &quot;Login Berhasil, anda masuk sebagai {status}&quot;" style="shape=parallelogram;perimeter=parallelogramPerimeter;whiteSpace=wrap;html=1;fixedSize=1;fillColor=#FAD9D5;strokeColor=#D0CEE2;fontColor=#1A1A1A;strokeWidth=2;labelBackgroundColor=none;" parent="WIyWlLk6GJQsqaUBKTNV-1" vertex="1">
          <mxGeometry x="2705" y="-28775" width="190" height="55" as="geometry" />
        </mxCell>
        <mxCell id="zbg4pSojLmp6s8H_3mv2-65" value="" style="edgeStyle=orthogonalEdgeStyle;rounded=0;orthogonalLoop=1;jettySize=auto;html=1;strokeColor=#09555B;fontColor=default;labelBackgroundColor=none;" parent="WIyWlLk6GJQsqaUBKTNV-1" source="zbg4pSojLmp6s8H_3mv2-62" target="zbg4pSojLmp6s8H_3mv2-64" edge="1">
          <mxGeometry relative="1" as="geometry" />
        </mxCell>
        <mxCell id="CRSx_ae5sVd4tHKQdAbA-97" value="" style="edgeStyle=orthogonalEdgeStyle;rounded=0;orthogonalLoop=1;jettySize=auto;html=1;strokeColor=#09555B;fontColor=default;labelBackgroundColor=none;" parent="WIyWlLk6GJQsqaUBKTNV-1" source="zbg4pSojLmp6s8H_3mv2-62" target="CRSx_ae5sVd4tHKQdAbA-96" edge="1">
          <mxGeometry relative="1" as="geometry" />
        </mxCell>
        <mxCell id="zbg4pSojLmp6s8H_3mv2-62" value="if status == &quot;admin&quot;" style="rhombus;whiteSpace=wrap;html=1;fillColor=#FAD9D5;strokeColor=#D0CEE2;fontColor=#1A1A1A;strokeWidth=2;labelBackgroundColor=none;" parent="WIyWlLk6GJQsqaUBKTNV-1" vertex="1">
          <mxGeometry x="2710" y="-28640" width="180" height="67.5" as="geometry" />
        </mxCell>
        <mxCell id="zbg4pSojLmp6s8H_3mv2-67" value="" style="edgeStyle=orthogonalEdgeStyle;rounded=0;orthogonalLoop=1;jettySize=auto;html=1;strokeColor=#09555B;fontColor=default;labelBackgroundColor=none;" parent="WIyWlLk6GJQsqaUBKTNV-1" target="zbg4pSojLmp6s8H_3mv2-66" edge="1">
          <mxGeometry relative="1" as="geometry">
            <mxPoint x="3119.96" y="-27342.63" as="sourcePoint" />
          </mxGeometry>
        </mxCell>
        <mxCell id="zbg4pSojLmp6s8H_3mv2-64" value="Output =&amp;nbsp;&lt;div&gt;&quot;Menu Admin&lt;/div&gt;&lt;div&gt;1. Tambah Kendaraan&lt;/div&gt;&lt;div&gt;2. Melihat List Kendaraan&lt;/div&gt;&lt;div&gt;3. Update Kendaraan&lt;/div&gt;&lt;div&gt;4. Hapus Kendaraan&lt;/div&gt;&lt;div&gt;5. Cek Status Rental&lt;/div&gt;&lt;div&gt;6. Logout&lt;/div&gt;" style="shape=parallelogram;perimeter=parallelogramPerimeter;whiteSpace=wrap;html=1;fixedSize=1;fillColor=#FAD9D5;strokeColor=#D0CEE2;fontColor=#1A1A1A;strokeWidth=2;labelBackgroundColor=none;" parent="WIyWlLk6GJQsqaUBKTNV-1" vertex="1">
          <mxGeometry x="3029.96" y="-27450" width="180" height="119.37" as="geometry" />
        </mxCell>
        <mxCell id="zbg4pSojLmp6s8H_3mv2-69" value="" style="edgeStyle=orthogonalEdgeStyle;rounded=0;orthogonalLoop=1;jettySize=auto;html=1;strokeColor=#09555B;fontColor=default;labelBackgroundColor=none;" parent="WIyWlLk6GJQsqaUBKTNV-1" source="zbg4pSojLmp6s8H_3mv2-66" target="zbg4pSojLmp6s8H_3mv2-68" edge="1">
          <mxGeometry relative="1" as="geometry" />
        </mxCell>
        <mxCell id="zbg4pSojLmp6s8H_3mv2-66" value="Input = 1/2/3/4/5/6" style="shape=parallelogram;perimeter=parallelogramPerimeter;whiteSpace=wrap;html=1;fixedSize=1;fillColor=#FAD9D5;strokeColor=#D0CEE2;fontColor=#1A1A1A;strokeWidth=2;labelBackgroundColor=none;" parent="WIyWlLk6GJQsqaUBKTNV-1" vertex="1">
          <mxGeometry x="3049.94" y="-27300" width="140.04" height="60" as="geometry" />
        </mxCell>
        <mxCell id="zbg4pSojLmp6s8H_3mv2-71" value="" style="edgeStyle=orthogonalEdgeStyle;rounded=0;orthogonalLoop=1;jettySize=auto;html=1;strokeColor=#09555B;fontColor=default;exitX=0.915;exitY=0.473;exitDx=0;exitDy=0;exitPerimeter=0;labelBackgroundColor=none;" parent="WIyWlLk6GJQsqaUBKTNV-1" source="zbg4pSojLmp6s8H_3mv2-68" target="zbg4pSojLmp6s8H_3mv2-70" edge="1">
          <mxGeometry relative="1" as="geometry">
            <mxPoint x="3240" y="-27182" as="sourcePoint" />
            <Array as="points">
              <mxPoint x="3175.96" y="-27172" />
              <mxPoint x="3264.96" y="-27172" />
            </Array>
          </mxGeometry>
        </mxCell>
        <mxCell id="CRSx_ae5sVd4tHKQdAbA-43" value="" style="edgeStyle=orthogonalEdgeStyle;rounded=0;orthogonalLoop=1;jettySize=auto;html=1;strokeColor=#09555B;fontColor=default;labelBackgroundColor=none;" parent="WIyWlLk6GJQsqaUBKTNV-1" source="zbg4pSojLmp6s8H_3mv2-68" target="zbg4pSojLmp6s8H_3mv2-74" edge="1">
          <mxGeometry relative="1" as="geometry">
            <mxPoint x="2725.05" y="-27120" as="targetPoint" />
          </mxGeometry>
        </mxCell>
        <mxCell id="zbg4pSojLmp6s8H_3mv2-68" value="if == 1" style="rhombus;whiteSpace=wrap;html=1;fillColor=#FAD9D5;strokeColor=#D0CEE2;fontColor=#1A1A1A;strokeWidth=2;labelBackgroundColor=none;" parent="WIyWlLk6GJQsqaUBKTNV-1" vertex="1">
          <mxGeometry x="3039.96" y="-27202" width="160" height="80" as="geometry" />
        </mxCell>
        <mxCell id="CRSx_ae5sVd4tHKQdAbA-141" value="" style="edgeStyle=orthogonalEdgeStyle;rounded=0;orthogonalLoop=1;jettySize=auto;html=1;strokeColor=#09555B;fontColor=default;labelBackgroundColor=none;" parent="WIyWlLk6GJQsqaUBKTNV-1" source="zbg4pSojLmp6s8H_3mv2-70" target="CRSx_ae5sVd4tHKQdAbA-140" edge="1">
          <mxGeometry relative="1" as="geometry" />
        </mxCell>
        <mxCell id="zbg4pSojLmp6s8H_3mv2-70" value="Input =&lt;div&gt;Nama kendaraan&lt;/div&gt;&lt;div&gt;Plat nomor&lt;/div&gt;&lt;div&gt;Status ready&quot;&lt;/div&gt;" style="shape=parallelogram;perimeter=parallelogramPerimeter;whiteSpace=wrap;html=1;fixedSize=1;fillColor=#FAD9D5;strokeColor=#D0CEE2;fontColor=#1A1A1A;strokeWidth=2;labelBackgroundColor=none;" parent="WIyWlLk6GJQsqaUBKTNV-1" vertex="1">
          <mxGeometry x="3315" y="-27152" width="130.04" height="70.02" as="geometry" />
        </mxCell>
        <mxCell id="zbg4pSojLmp6s8H_3mv2-72" value="Output &quot;Kendaraan berhasil ditambahkan&quot;" style="shape=parallelogram;perimeter=parallelogramPerimeter;whiteSpace=wrap;html=1;fixedSize=1;fillColor=#FAD9D5;strokeColor=#D0CEE2;fontColor=#1A1A1A;strokeWidth=2;labelBackgroundColor=none;" parent="WIyWlLk6GJQsqaUBKTNV-1" vertex="1">
          <mxGeometry x="3310" y="-26890" width="140" height="60" as="geometry" />
        </mxCell>
        <mxCell id="CRSx_ae5sVd4tHKQdAbA-6" value="" style="edgeStyle=orthogonalEdgeStyle;rounded=0;orthogonalLoop=1;jettySize=auto;html=1;strokeColor=#09555B;fontColor=default;labelBackgroundColor=none;" parent="WIyWlLk6GJQsqaUBKTNV-1" source="zbg4pSojLmp6s8H_3mv2-74" target="CRSx_ae5sVd4tHKQdAbA-5" edge="1">
          <mxGeometry relative="1" as="geometry" />
        </mxCell>
        <mxCell id="CRSx_ae5sVd4tHKQdAbA-44" value="" style="edgeStyle=orthogonalEdgeStyle;rounded=0;orthogonalLoop=1;jettySize=auto;html=1;strokeColor=#09555B;fontColor=default;entryX=0.551;entryY=0.018;entryDx=0;entryDy=0;entryPerimeter=0;labelBackgroundColor=none;" parent="WIyWlLk6GJQsqaUBKTNV-1" source="zbg4pSojLmp6s8H_3mv2-74" target="CRSx_ae5sVd4tHKQdAbA-2" edge="1">
          <mxGeometry relative="1" as="geometry" />
        </mxCell>
        <mxCell id="zbg4pSojLmp6s8H_3mv2-74" value="if == 2" style="rhombus;whiteSpace=wrap;html=1;fillColor=#FAD9D5;strokeColor=#D0CEE2;fontColor=#1A1A1A;strokeWidth=2;labelBackgroundColor=none;" parent="WIyWlLk6GJQsqaUBKTNV-1" vertex="1">
          <mxGeometry x="2643.8" y="-27110" width="160" height="80" as="geometry" />
        </mxCell>
        <mxCell id="zbg4pSojLmp6s8H_3mv2-76" value="True" style="text;html=1;align=center;verticalAlign=middle;resizable=0;points=[];autosize=1;strokeColor=none;fillColor=none;fontColor=#1A1A1A;labelBackgroundColor=none;" parent="WIyWlLk6GJQsqaUBKTNV-1" vertex="1">
          <mxGeometry x="3280" y="-27202" width="50" height="30" as="geometry" />
        </mxCell>
        <mxCell id="zbg4pSojLmp6s8H_3mv2-77" value="False" style="text;html=1;align=center;verticalAlign=middle;resizable=0;points=[];autosize=1;strokeColor=none;fillColor=none;fontColor=#1A1A1A;labelBackgroundColor=none;" parent="WIyWlLk6GJQsqaUBKTNV-1" vertex="1">
          <mxGeometry x="2959.96" y="-27204" width="50" height="30" as="geometry" />
        </mxCell>
        <mxCell id="CRSx_ae5sVd4tHKQdAbA-0" value="False" style="text;html=1;align=center;verticalAlign=middle;resizable=0;points=[];autosize=1;strokeColor=none;fillColor=none;fontColor=#1A1A1A;labelBackgroundColor=none;" parent="WIyWlLk6GJQsqaUBKTNV-1" vertex="1">
          <mxGeometry x="2421.25" y="-28905" width="50" height="30" as="geometry" />
        </mxCell>
        <mxCell id="CRSx_ae5sVd4tHKQdAbA-1" value="True" style="text;html=1;align=center;verticalAlign=middle;resizable=0;points=[];autosize=1;strokeColor=none;fillColor=none;fontColor=#1A1A1A;labelBackgroundColor=none;" parent="WIyWlLk6GJQsqaUBKTNV-1" vertex="1">
          <mxGeometry x="2680" y="-28905" width="50" height="30" as="geometry" />
        </mxCell>
        <mxCell id="CRSx_ae5sVd4tHKQdAbA-2" value="Output&lt;div&gt;List kendaraan:&lt;/div&gt;&lt;div&gt;1. Mpbil CRV&lt;/div&gt;&lt;div&gt;2. Mobil Pajero&lt;/div&gt;&lt;div&gt;3.Mobil Fortuner&lt;/div&gt;&lt;div&gt;4. Motor CBR 250&lt;/div&gt;&lt;div&gt;5, Motor R15 V3&lt;/div&gt;" style="shape=parallelogram;perimeter=parallelogramPerimeter;whiteSpace=wrap;html=1;fixedSize=1;fillColor=#FAD9D5;strokeColor=#D0CEE2;fontColor=#1A1A1A;strokeWidth=2;labelBackgroundColor=none;" parent="WIyWlLk6GJQsqaUBKTNV-1" vertex="1">
          <mxGeometry x="2925.05" y="-27000" width="156.81" height="110" as="geometry" />
        </mxCell>
        <mxCell id="CRSx_ae5sVd4tHKQdAbA-4" value="True" style="text;html=1;align=center;verticalAlign=middle;resizable=0;points=[];autosize=1;strokeColor=none;fillColor=none;fontColor=#1A1A1A;labelBackgroundColor=none;" parent="WIyWlLk6GJQsqaUBKTNV-1" vertex="1">
          <mxGeometry x="2837.3900000000003" y="-27102" width="50" height="30" as="geometry" />
        </mxCell>
        <mxCell id="CRSx_ae5sVd4tHKQdAbA-46" value="" style="edgeStyle=orthogonalEdgeStyle;rounded=0;orthogonalLoop=1;jettySize=auto;html=1;strokeColor=#09555B;fontColor=default;labelBackgroundColor=none;" parent="WIyWlLk6GJQsqaUBKTNV-1" source="CRSx_ae5sVd4tHKQdAbA-5" target="CRSx_ae5sVd4tHKQdAbA-45" edge="1">
          <mxGeometry relative="1" as="geometry" />
        </mxCell>
        <mxCell id="CRSx_ae5sVd4tHKQdAbA-50" value="" style="edgeStyle=orthogonalEdgeStyle;rounded=0;orthogonalLoop=1;jettySize=auto;html=1;strokeColor=#09555B;fontColor=default;labelBackgroundColor=none;" parent="WIyWlLk6GJQsqaUBKTNV-1" source="CRSx_ae5sVd4tHKQdAbA-5" target="CRSx_ae5sVd4tHKQdAbA-49" edge="1">
          <mxGeometry relative="1" as="geometry" />
        </mxCell>
        <mxCell id="CRSx_ae5sVd4tHKQdAbA-5" value="if == 3" style="rhombus;whiteSpace=wrap;html=1;fillColor=#FAD9D5;strokeColor=#D0CEE2;fontColor=#1A1A1A;strokeWidth=2;labelBackgroundColor=none;" parent="WIyWlLk6GJQsqaUBKTNV-1" vertex="1">
          <mxGeometry x="2105.05" y="-27015" width="160" height="80" as="geometry" />
        </mxCell>
        <mxCell id="CRSx_ae5sVd4tHKQdAbA-7" value="False" style="text;html=1;align=center;verticalAlign=middle;resizable=0;points=[];autosize=1;strokeColor=none;fillColor=none;fontColor=#1A1A1A;labelBackgroundColor=none;" parent="WIyWlLk6GJQsqaUBKTNV-1" vertex="1">
          <mxGeometry x="2550.05" y="-27102" width="50" height="30" as="geometry" />
        </mxCell>
        <mxCell id="CRSx_ae5sVd4tHKQdAbA-41" value="" style="edgeStyle=orthogonalEdgeStyle;rounded=0;orthogonalLoop=1;jettySize=auto;html=1;strokeColor=#09555B;fontColor=default;labelBackgroundColor=none;" parent="WIyWlLk6GJQsqaUBKTNV-1" source="CRSx_ae5sVd4tHKQdAbA-10" target="CRSx_ae5sVd4tHKQdAbA-40" edge="1">
          <mxGeometry relative="1" as="geometry" />
        </mxCell>
        <mxCell id="CRSx_ae5sVd4tHKQdAbA-10" value="Input:&lt;div&gt;Nama baru kendaraan&lt;/div&gt;&lt;div&gt;Plat Nomor Baru&lt;/div&gt;" style="shape=parallelogram;perimeter=parallelogramPerimeter;whiteSpace=wrap;html=1;fixedSize=1;fillColor=#FAD9D5;strokeColor=#D0CEE2;fontColor=#1A1A1A;strokeWidth=2;labelBackgroundColor=none;" parent="WIyWlLk6GJQsqaUBKTNV-1" vertex="1">
          <mxGeometry x="2725.05" y="-26750" width="172.5" height="60" as="geometry" />
        </mxCell>
        <mxCell id="CRSx_ae5sVd4tHKQdAbA-12" value="True" style="text;html=1;align=center;verticalAlign=middle;resizable=0;points=[];autosize=1;strokeColor=none;fillColor=none;fontColor=#1A1A1A;labelBackgroundColor=none;" parent="WIyWlLk6GJQsqaUBKTNV-1" vertex="1">
          <mxGeometry x="2275.05" y="-27005" width="50" height="30" as="geometry" />
        </mxCell>
        <mxCell id="CRSx_ae5sVd4tHKQdAbA-27" value="Output&amp;nbsp;&lt;div&gt;&quot;Nomor kendaran tidak valid&quot;&lt;/div&gt;" style="shape=parallelogram;perimeter=parallelogramPerimeter;whiteSpace=wrap;html=1;fixedSize=1;fillColor=#FAD9D5;strokeColor=#D0CEE2;fontColor=#1A1A1A;strokeWidth=2;labelBackgroundColor=none;" parent="WIyWlLk6GJQsqaUBKTNV-1" vertex="1">
          <mxGeometry x="2315.05" y="-26750" width="150" height="60" as="geometry" />
        </mxCell>
        <mxCell id="CRSx_ae5sVd4tHKQdAbA-48" value="" style="edgeStyle=orthogonalEdgeStyle;rounded=0;orthogonalLoop=1;jettySize=auto;html=1;strokeColor=#09555B;fontColor=default;labelBackgroundColor=none;" parent="WIyWlLk6GJQsqaUBKTNV-1" source="CRSx_ae5sVd4tHKQdAbA-32" target="CRSx_ae5sVd4tHKQdAbA-34" edge="1">
          <mxGeometry relative="1" as="geometry" />
        </mxCell>
        <mxCell id="CRSx_ae5sVd4tHKQdAbA-32" value="Input No&amp;nbsp;&lt;div&gt;kendaraan&lt;/div&gt;" style="shape=parallelogram;perimeter=parallelogramPerimeter;whiteSpace=wrap;html=1;fixedSize=1;strokeColor=#D0CEE2;fontColor=#1A1A1A;fillColor=#FAD9D5;labelBackgroundColor=none;" parent="WIyWlLk6GJQsqaUBKTNV-1" vertex="1">
          <mxGeometry x="2535.05" y="-27005" width="120" height="60" as="geometry" />
        </mxCell>
        <mxCell id="CRSx_ae5sVd4tHKQdAbA-36" value="" style="edgeStyle=orthogonalEdgeStyle;rounded=0;orthogonalLoop=1;jettySize=auto;html=1;strokeColor=#09555B;fontColor=default;labelBackgroundColor=none;" parent="WIyWlLk6GJQsqaUBKTNV-1" source="CRSx_ae5sVd4tHKQdAbA-34" target="CRSx_ae5sVd4tHKQdAbA-27" edge="1">
          <mxGeometry relative="1" as="geometry" />
        </mxCell>
        <mxCell id="CRSx_ae5sVd4tHKQdAbA-37" value="" style="edgeStyle=orthogonalEdgeStyle;rounded=0;orthogonalLoop=1;jettySize=auto;html=1;strokeColor=#09555B;fontColor=default;labelBackgroundColor=none;" parent="WIyWlLk6GJQsqaUBKTNV-1" source="CRSx_ae5sVd4tHKQdAbA-34" target="CRSx_ae5sVd4tHKQdAbA-10" edge="1">
          <mxGeometry relative="1" as="geometry" />
        </mxCell>
        <mxCell id="CRSx_ae5sVd4tHKQdAbA-34" value="If in Kendaraan" style="rhombus;whiteSpace=wrap;html=1;fillColor=#FAD9D5;strokeColor=#D0CEE2;fontColor=#1A1A1A;labelBackgroundColor=none;" parent="WIyWlLk6GJQsqaUBKTNV-1" vertex="1">
          <mxGeometry x="2510.05" y="-26760" width="170" height="80" as="geometry" />
        </mxCell>
        <mxCell id="CRSx_ae5sVd4tHKQdAbA-40" value="Output&lt;div&gt;&quot;Kendaraan Berhasil diupdate&quot;&lt;/div&gt;" style="shape=parallelogram;perimeter=parallelogramPerimeter;whiteSpace=wrap;html=1;fixedSize=1;fillColor=#FAD9D5;strokeColor=#D0CEE2;fontColor=#1A1A1A;strokeWidth=2;labelBackgroundColor=none;" parent="WIyWlLk6GJQsqaUBKTNV-1" vertex="1">
          <mxGeometry x="2738.1800000000003" y="-26620" width="146.25" height="60" as="geometry" />
        </mxCell>
        <mxCell id="CRSx_ae5sVd4tHKQdAbA-47" value="" style="edgeStyle=orthogonalEdgeStyle;rounded=0;orthogonalLoop=1;jettySize=auto;html=1;strokeColor=#09555B;fontColor=default;labelBackgroundColor=none;" parent="WIyWlLk6GJQsqaUBKTNV-1" source="CRSx_ae5sVd4tHKQdAbA-45" target="CRSx_ae5sVd4tHKQdAbA-32" edge="1">
          <mxGeometry relative="1" as="geometry" />
        </mxCell>
        <mxCell id="CRSx_ae5sVd4tHKQdAbA-45" value="Output&lt;div&gt;List kendaraan:&lt;/div&gt;&lt;div&gt;1. Mpbil CRV&lt;/div&gt;&lt;div&gt;2. Mobil Pajero&lt;/div&gt;&lt;div&gt;3.Mobil Fortuner&lt;/div&gt;&lt;div&gt;4. Motor CBR 250&lt;/div&gt;&lt;div&gt;5, Motor R15 V3&lt;/div&gt;" style="shape=parallelogram;perimeter=parallelogramPerimeter;whiteSpace=wrap;html=1;fixedSize=1;fillColor=#FAD9D5;strokeColor=#D0CEE2;fontColor=#1A1A1A;strokeWidth=2;labelBackgroundColor=none;" parent="WIyWlLk6GJQsqaUBKTNV-1" vertex="1">
          <mxGeometry x="2341.65" y="-27030" width="156.81" height="110" as="geometry" />
        </mxCell>
        <mxCell id="CRSx_ae5sVd4tHKQdAbA-52" value="" style="edgeStyle=orthogonalEdgeStyle;rounded=0;orthogonalLoop=1;jettySize=auto;html=1;strokeColor=#09555B;fontColor=default;labelBackgroundColor=none;" parent="WIyWlLk6GJQsqaUBKTNV-1" source="CRSx_ae5sVd4tHKQdAbA-49" target="CRSx_ae5sVd4tHKQdAbA-51" edge="1">
          <mxGeometry relative="1" as="geometry" />
        </mxCell>
        <mxCell id="CRSx_ae5sVd4tHKQdAbA-67" value="" style="edgeStyle=orthogonalEdgeStyle;rounded=0;orthogonalLoop=1;jettySize=auto;html=1;strokeColor=#09555B;fontColor=default;labelBackgroundColor=none;" parent="WIyWlLk6GJQsqaUBKTNV-1" source="CkM2lhjMVIzfR7jUdtt8-0" target="CRSx_ae5sVd4tHKQdAbA-66" edge="1">
          <mxGeometry relative="1" as="geometry" />
        </mxCell>
        <mxCell id="CkM2lhjMVIzfR7jUdtt8-2" value="" style="edgeStyle=orthogonalEdgeStyle;rounded=0;orthogonalLoop=1;jettySize=auto;html=1;" parent="WIyWlLk6GJQsqaUBKTNV-1" source="CRSx_ae5sVd4tHKQdAbA-49" target="CkM2lhjMVIzfR7jUdtt8-0" edge="1">
          <mxGeometry relative="1" as="geometry">
            <Array as="points">
              <mxPoint x="1340" y="-26830" />
            </Array>
          </mxGeometry>
        </mxCell>
        <mxCell id="CRSx_ae5sVd4tHKQdAbA-49" value="if == 4" style="rhombus;whiteSpace=wrap;html=1;fillColor=#FAD9D5;strokeColor=#D0CEE2;fontColor=#1A1A1A;strokeWidth=2;labelBackgroundColor=none;" parent="WIyWlLk6GJQsqaUBKTNV-1" vertex="1">
          <mxGeometry x="1465.05" y="-26870" width="160" height="80" as="geometry" />
        </mxCell>
        <mxCell id="CRSx_ae5sVd4tHKQdAbA-55" value="" style="edgeStyle=orthogonalEdgeStyle;rounded=0;orthogonalLoop=1;jettySize=auto;html=1;strokeColor=#09555B;fontColor=default;labelBackgroundColor=none;" parent="WIyWlLk6GJQsqaUBKTNV-1" source="CRSx_ae5sVd4tHKQdAbA-51" target="CRSx_ae5sVd4tHKQdAbA-54" edge="1">
          <mxGeometry relative="1" as="geometry" />
        </mxCell>
        <mxCell id="CRSx_ae5sVd4tHKQdAbA-51" value="Output&lt;div&gt;List kendaraan:&lt;/div&gt;&lt;div&gt;1. Mpbil CRV&lt;/div&gt;&lt;div&gt;2. Mobil Pajero&lt;/div&gt;&lt;div&gt;3.Mobil Fortuner&lt;/div&gt;&lt;div&gt;4. Motor CBR 250&lt;/div&gt;&lt;div&gt;5, Motor R15 V3&lt;/div&gt;" style="shape=parallelogram;perimeter=parallelogramPerimeter;whiteSpace=wrap;html=1;fixedSize=1;fillColor=#FAD9D5;strokeColor=#D0CEE2;fontColor=#1A1A1A;strokeWidth=2;labelBackgroundColor=none;" parent="WIyWlLk6GJQsqaUBKTNV-1" vertex="1">
          <mxGeometry x="1695.05" y="-26885" width="156.81" height="110" as="geometry" />
        </mxCell>
        <mxCell id="CRSx_ae5sVd4tHKQdAbA-53" value="True" style="text;html=1;align=center;verticalAlign=middle;resizable=0;points=[];autosize=1;strokeColor=none;fillColor=none;fontColor=#1A1A1A;labelBackgroundColor=none;" parent="WIyWlLk6GJQsqaUBKTNV-1" vertex="1">
          <mxGeometry x="1635.05" y="-26860" width="50" height="30" as="geometry" />
        </mxCell>
        <mxCell id="CRSx_ae5sVd4tHKQdAbA-57" value="" style="edgeStyle=orthogonalEdgeStyle;rounded=0;orthogonalLoop=1;jettySize=auto;html=1;strokeColor=#09555B;fontColor=default;labelBackgroundColor=none;" parent="WIyWlLk6GJQsqaUBKTNV-1" source="CRSx_ae5sVd4tHKQdAbA-54" target="CRSx_ae5sVd4tHKQdAbA-56" edge="1">
          <mxGeometry relative="1" as="geometry" />
        </mxCell>
        <mxCell id="CRSx_ae5sVd4tHKQdAbA-54" value="Input&amp;nbsp;&lt;div&gt;No kendaraan yang akan dihapus&lt;/div&gt;" style="shape=parallelogram;perimeter=parallelogramPerimeter;whiteSpace=wrap;html=1;fixedSize=1;fillColor=#FAD9D5;strokeColor=#D0CEE2;fontColor=#1A1A1A;strokeWidth=2;labelBackgroundColor=none;" parent="WIyWlLk6GJQsqaUBKTNV-1" vertex="1">
          <mxGeometry x="1708.45" y="-26720" width="130" height="60" as="geometry" />
        </mxCell>
        <mxCell id="CRSx_ae5sVd4tHKQdAbA-61" value="" style="edgeStyle=orthogonalEdgeStyle;rounded=0;orthogonalLoop=1;jettySize=auto;html=1;strokeColor=#09555B;fontColor=default;labelBackgroundColor=none;" parent="WIyWlLk6GJQsqaUBKTNV-1" source="CRSx_ae5sVd4tHKQdAbA-56" target="CRSx_ae5sVd4tHKQdAbA-60" edge="1">
          <mxGeometry relative="1" as="geometry" />
        </mxCell>
        <mxCell id="CRSx_ae5sVd4tHKQdAbA-144" value="" style="edgeStyle=orthogonalEdgeStyle;rounded=0;orthogonalLoop=1;jettySize=auto;html=1;strokeColor=#09555B;fontColor=default;labelBackgroundColor=none;" parent="WIyWlLk6GJQsqaUBKTNV-1" source="CRSx_ae5sVd4tHKQdAbA-56" target="CRSx_ae5sVd4tHKQdAbA-143" edge="1">
          <mxGeometry relative="1" as="geometry" />
        </mxCell>
        <mxCell id="CRSx_ae5sVd4tHKQdAbA-56" value="if in Kendaraan" style="rhombus;whiteSpace=wrap;html=1;fillColor=#FAD9D5;strokeColor=#D0CEE2;fontColor=#1A1A1A;strokeWidth=2;labelBackgroundColor=none;" parent="WIyWlLk6GJQsqaUBKTNV-1" vertex="1">
          <mxGeometry x="1704.25" y="-26600" width="138.4" height="80" as="geometry" />
        </mxCell>
        <mxCell id="CRSx_ae5sVd4tHKQdAbA-60" value="Output&amp;nbsp;&lt;div&gt;&quot;Nomor kendaran tidak valid&quot;&lt;/div&gt;" style="shape=parallelogram;perimeter=parallelogramPerimeter;whiteSpace=wrap;html=1;fixedSize=1;fillColor=#FAD9D5;strokeColor=#D0CEE2;fontColor=#1A1A1A;strokeWidth=2;labelBackgroundColor=none;" parent="WIyWlLk6GJQsqaUBKTNV-1" vertex="1">
          <mxGeometry x="1495.05" y="-26590" width="150" height="60" as="geometry" />
        </mxCell>
        <mxCell id="CRSx_ae5sVd4tHKQdAbA-62" value="Output&amp;nbsp;&lt;div&gt;&quot;Kendaraan berhasil dihapus&quot;&lt;/div&gt;" style="shape=parallelogram;perimeter=parallelogramPerimeter;whiteSpace=wrap;html=1;fixedSize=1;fillColor=#FAD9D5;strokeColor=#D0CEE2;fontColor=#1A1A1A;strokeWidth=2;labelBackgroundColor=none;" parent="WIyWlLk6GJQsqaUBKTNV-1" vertex="1">
          <mxGeometry x="2068.4" y="-26590" width="143.2" height="60" as="geometry" />
        </mxCell>
        <mxCell id="CRSx_ae5sVd4tHKQdAbA-64" value="True" style="text;html=1;align=center;verticalAlign=middle;resizable=0;points=[];autosize=1;strokeColor=none;fillColor=none;fontColor=#1A1A1A;labelBackgroundColor=none;" parent="WIyWlLk6GJQsqaUBKTNV-1" vertex="1">
          <mxGeometry x="1838.45" y="-26590" width="50" height="30" as="geometry" />
        </mxCell>
        <mxCell id="CRSx_ae5sVd4tHKQdAbA-65" value="False" style="text;html=1;align=center;verticalAlign=middle;resizable=0;points=[];autosize=1;strokeColor=none;fillColor=none;fontColor=#1A1A1A;labelBackgroundColor=none;" parent="WIyWlLk6GJQsqaUBKTNV-1" vertex="1">
          <mxGeometry x="1658.45" y="-26592" width="50" height="30" as="geometry" />
        </mxCell>
        <mxCell id="CRSx_ae5sVd4tHKQdAbA-72" value="" style="edgeStyle=orthogonalEdgeStyle;rounded=0;orthogonalLoop=1;jettySize=auto;html=1;strokeColor=#09555B;fontColor=default;labelBackgroundColor=none;" parent="WIyWlLk6GJQsqaUBKTNV-1" source="CRSx_ae5sVd4tHKQdAbA-66" target="CRSx_ae5sVd4tHKQdAbA-71" edge="1">
          <mxGeometry relative="1" as="geometry" />
        </mxCell>
        <mxCell id="CRSx_ae5sVd4tHKQdAbA-66" value="if == 6" style="rhombus;whiteSpace=wrap;html=1;fillColor=#FAD9D5;strokeColor=#D0CEE2;fontColor=#1A1A1A;strokeWidth=2;labelBackgroundColor=none;" parent="WIyWlLk6GJQsqaUBKTNV-1" vertex="1">
          <mxGeometry x="850.05" y="-26672" width="160" height="80" as="geometry" />
        </mxCell>
        <mxCell id="CRSx_ae5sVd4tHKQdAbA-70" value="&lt;font color=&quot;#000000&quot;&gt;END&lt;/font&gt;" style="strokeWidth=2;html=1;shape=mxgraph.flowchart.terminator;whiteSpace=wrap;align=center;fillColor=#FAD9D5;strokeColor=#D0CEE2;fontStyle=1;labelBackgroundColor=none;fontColor=#1A1A1A;" parent="WIyWlLk6GJQsqaUBKTNV-1" vertex="1">
          <mxGeometry x="2870" y="-26010" width="80" height="30" as="geometry" />
        </mxCell>
        <mxCell id="CRSx_ae5sVd4tHKQdAbA-71" value="Output&lt;div&gt;&quot;Opsi tidak valid&quot;&lt;/div&gt;" style="shape=parallelogram;perimeter=parallelogramPerimeter;whiteSpace=wrap;html=1;fixedSize=1;fillColor=#FAD9D5;strokeColor=#D0CEE2;fontColor=#1A1A1A;strokeWidth=2;labelBackgroundColor=none;" parent="WIyWlLk6GJQsqaUBKTNV-1" vertex="1">
          <mxGeometry x="620" y="-26662" width="120" height="60" as="geometry" />
        </mxCell>
        <mxCell id="CRSx_ae5sVd4tHKQdAbA-73" value="False" style="text;html=1;align=center;verticalAlign=middle;resizable=0;points=[];autosize=1;strokeColor=none;fillColor=none;fontColor=#1A1A1A;labelBackgroundColor=none;" parent="WIyWlLk6GJQsqaUBKTNV-1" vertex="1">
          <mxGeometry x="1370.05" y="-26860" width="50" height="30" as="geometry" />
        </mxCell>
        <mxCell id="CRSx_ae5sVd4tHKQdAbA-74" value="False" style="text;html=1;align=center;verticalAlign=middle;resizable=0;points=[];autosize=1;strokeColor=none;fillColor=none;fontColor=#1A1A1A;labelBackgroundColor=none;" parent="WIyWlLk6GJQsqaUBKTNV-1" vertex="1">
          <mxGeometry x="780" y="-26672" width="50" height="30" as="geometry" />
        </mxCell>
        <mxCell id="CRSx_ae5sVd4tHKQdAbA-82" value="" style="endArrow=classic;html=1;rounded=0;strokeColor=#09555B;fontColor=default;entryX=1;entryY=0.5;entryDx=0;entryDy=0;exitX=0.5;exitY=0;exitDx=0;exitDy=0;labelBackgroundColor=none;" parent="WIyWlLk6GJQsqaUBKTNV-1" source="zbg4pSojLmp6s8H_3mv2-40" target="zbg4pSojLmp6s8H_3mv2-20" edge="1">
          <mxGeometry width="50" height="50" relative="1" as="geometry">
            <mxPoint x="2970" y="-28950" as="sourcePoint" />
            <mxPoint x="3020" y="-29000" as="targetPoint" />
            <Array as="points">
              <mxPoint x="3275" y="-29345" />
            </Array>
          </mxGeometry>
        </mxCell>
        <mxCell id="CRSx_ae5sVd4tHKQdAbA-83" value="" style="endArrow=classic;html=1;rounded=0;strokeColor=#09555B;fontColor=default;exitX=1;exitY=0.5;exitDx=0;exitDy=0;entryX=0;entryY=0.5;entryDx=0;entryDy=0;labelBackgroundColor=none;" parent="WIyWlLk6GJQsqaUBKTNV-1" edge="1">
          <mxGeometry width="50" height="50" relative="1" as="geometry">
            <mxPoint x="975.0500000000006" y="-26632" as="sourcePoint" />
            <mxPoint x="2825" y="-26120" as="targetPoint" />
            <Array as="points">
              <mxPoint x="1205" y="-26632" />
              <mxPoint x="1205" y="-26120" />
            </Array>
          </mxGeometry>
        </mxCell>
        <mxCell id="CRSx_ae5sVd4tHKQdAbA-184" value="" style="edgeStyle=orthogonalEdgeStyle;rounded=0;orthogonalLoop=1;jettySize=auto;html=1;strokeColor=#09555B;fontColor=default;labelBackgroundColor=none;" parent="WIyWlLk6GJQsqaUBKTNV-1" source="CRSx_ae5sVd4tHKQdAbA-84" edge="1">
          <mxGeometry relative="1" as="geometry">
            <mxPoint x="2910" y="-26010" as="targetPoint" />
          </mxGeometry>
        </mxCell>
        <mxCell id="CRSx_ae5sVd4tHKQdAbA-84" value="Output&lt;div&gt;&quot;Logout berhasil&quot;&lt;/div&gt;" style="shape=parallelogram;perimeter=parallelogramPerimeter;whiteSpace=wrap;html=1;fixedSize=1;strokeColor=#D0CEE2;fontColor=#1A1A1A;fillColor=#FAD9D5;labelBackgroundColor=none;" parent="WIyWlLk6GJQsqaUBKTNV-1" vertex="1">
          <mxGeometry x="2850" y="-26150" width="120" height="60" as="geometry" />
        </mxCell>
        <mxCell id="CRSx_ae5sVd4tHKQdAbA-85" value="True" style="text;html=1;align=center;verticalAlign=middle;resizable=0;points=[];autosize=1;strokeColor=none;fillColor=none;fontColor=#1A1A1A;labelBackgroundColor=none;" parent="WIyWlLk6GJQsqaUBKTNV-1" vertex="1">
          <mxGeometry x="1090" y="-26662" width="50" height="30" as="geometry" />
        </mxCell>
        <mxCell id="CRSx_ae5sVd4tHKQdAbA-87" value="" style="endArrow=classic;html=1;rounded=0;strokeColor=#09555B;fontColor=default;exitX=0.5;exitY=0;exitDx=0;exitDy=0;entryX=0;entryY=0.5;entryDx=0;entryDy=0;labelBackgroundColor=none;" parent="WIyWlLk6GJQsqaUBKTNV-1" source="CRSx_ae5sVd4tHKQdAbA-71" target="zbg4pSojLmp6s8H_3mv2-64" edge="1">
          <mxGeometry width="50" height="50" relative="1" as="geometry">
            <mxPoint x="905.05" y="-26530" as="sourcePoint" />
            <mxPoint x="3039.96" y="-27397.315" as="targetPoint" />
            <Array as="points">
              <mxPoint x="680" y="-27400" />
            </Array>
          </mxGeometry>
        </mxCell>
        <mxCell id="CRSx_ae5sVd4tHKQdAbA-88" value="True" style="text;html=1;align=center;verticalAlign=middle;resizable=0;points=[];autosize=1;strokeColor=none;fillColor=none;fontColor=#1A1A1A;labelBackgroundColor=none;" parent="WIyWlLk6GJQsqaUBKTNV-1" vertex="1">
          <mxGeometry x="2909.96" y="-28640" width="50" height="30" as="geometry" />
        </mxCell>
        <mxCell id="CRSx_ae5sVd4tHKQdAbA-89" value="Output&amp;nbsp;&lt;div&gt;&quot;Opsi tidak valid&quot;&lt;/div&gt;" style="shape=parallelogram;perimeter=parallelogramPerimeter;whiteSpace=wrap;html=1;fixedSize=1;fillColor=#FAD9D5;strokeColor=#D0CEE2;fontColor=#1A1A1A;strokeWidth=2;labelBackgroundColor=none;" parent="WIyWlLk6GJQsqaUBKTNV-1" vertex="1">
          <mxGeometry x="1820" y="-29132" width="126.82" height="60" as="geometry" />
        </mxCell>
        <mxCell id="CRSx_ae5sVd4tHKQdAbA-93" value="False" style="text;html=1;align=center;verticalAlign=middle;resizable=0;points=[];autosize=1;strokeColor=none;fillColor=none;fontColor=#1A1A1A;labelBackgroundColor=none;" parent="WIyWlLk6GJQsqaUBKTNV-1" vertex="1">
          <mxGeometry x="1970" y="-29132" width="50" height="30" as="geometry" />
        </mxCell>
        <mxCell id="CRSx_ae5sVd4tHKQdAbA-94" value="" style="endArrow=classic;html=1;rounded=0;strokeColor=#09555B;fontColor=default;exitX=1;exitY=0.5;exitDx=0;exitDy=0;exitPerimeter=0;entryX=0;entryY=0.5;entryDx=0;entryDy=0;labelBackgroundColor=none;" parent="WIyWlLk6GJQsqaUBKTNV-1" source="zbg4pSojLmp6s8H_3mv2-26" target="CRSx_ae5sVd4tHKQdAbA-84" edge="1">
          <mxGeometry width="50" height="50" relative="1" as="geometry">
            <mxPoint x="2160" y="-29160" as="sourcePoint" />
            <mxPoint x="2190" y="-26010" as="targetPoint" />
            <Array as="points">
              <mxPoint x="2240" y="-29100" />
              <mxPoint x="2240" y="-28820" />
              <mxPoint x="540" y="-28820" />
              <mxPoint x="530" y="-26120" />
            </Array>
          </mxGeometry>
        </mxCell>
        <mxCell id="CRSx_ae5sVd4tHKQdAbA-95" value="True" style="text;html=1;align=center;verticalAlign=middle;resizable=0;points=[];autosize=1;strokeColor=none;fillColor=none;fontColor=#1A1A1A;labelBackgroundColor=none;" parent="WIyWlLk6GJQsqaUBKTNV-1" vertex="1">
          <mxGeometry x="2145" y="-29132" width="50" height="30" as="geometry" />
        </mxCell>
        <mxCell id="CRSx_ae5sVd4tHKQdAbA-99" value="" style="edgeStyle=orthogonalEdgeStyle;rounded=0;orthogonalLoop=1;jettySize=auto;html=1;strokeColor=#09555B;fontColor=default;labelBackgroundColor=none;" parent="WIyWlLk6GJQsqaUBKTNV-1" source="CRSx_ae5sVd4tHKQdAbA-96" target="CRSx_ae5sVd4tHKQdAbA-98" edge="1">
          <mxGeometry relative="1" as="geometry" />
        </mxCell>
        <mxCell id="CRSx_ae5sVd4tHKQdAbA-101" value="" style="edgeStyle=orthogonalEdgeStyle;rounded=0;orthogonalLoop=1;jettySize=auto;html=1;strokeColor=#09555B;fontColor=default;labelBackgroundColor=none;" parent="WIyWlLk6GJQsqaUBKTNV-1" source="CRSx_ae5sVd4tHKQdAbA-96" target="CRSx_ae5sVd4tHKQdAbA-100" edge="1">
          <mxGeometry relative="1" as="geometry" />
        </mxCell>
        <mxCell id="CRSx_ae5sVd4tHKQdAbA-96" value="if status == &quot;user&quot;" style="rhombus;whiteSpace=wrap;html=1;fillColor=#FAD9D5;strokeColor=#D0CEE2;fontColor=#1A1A1A;strokeWidth=2;labelBackgroundColor=none;" parent="WIyWlLk6GJQsqaUBKTNV-1" vertex="1">
          <mxGeometry x="2180" y="-28560" width="180" height="67.5" as="geometry" />
        </mxCell>
        <mxCell id="CRSx_ae5sVd4tHKQdAbA-106" value="" style="edgeStyle=orthogonalEdgeStyle;rounded=0;orthogonalLoop=1;jettySize=auto;html=1;strokeColor=#09555B;fontColor=default;labelBackgroundColor=none;" parent="WIyWlLk6GJQsqaUBKTNV-1" source="CRSx_ae5sVd4tHKQdAbA-98" target="CRSx_ae5sVd4tHKQdAbA-105" edge="1">
          <mxGeometry relative="1" as="geometry" />
        </mxCell>
        <mxCell id="CRSx_ae5sVd4tHKQdAbA-98" value="Output =&amp;nbsp;&lt;div&gt;&quot;Menu User&lt;/div&gt;&lt;div&gt;1. Melihat list kendaraan&lt;/div&gt;&lt;div&gt;2. Rental Kendaraan&lt;/div&gt;&lt;div&gt;3. Kembalikan Kendaraan&lt;/div&gt;&lt;div&gt;4. Logout&quot;&lt;/div&gt;&lt;div&gt;&lt;br&gt;&lt;/div&gt;" style="shape=parallelogram;perimeter=parallelogramPerimeter;whiteSpace=wrap;html=1;fixedSize=1;fillColor=#FAD9D5;strokeColor=#D0CEE2;fontColor=#1A1A1A;strokeWidth=2;labelBackgroundColor=none;" parent="WIyWlLk6GJQsqaUBKTNV-1" vertex="1">
          <mxGeometry x="2483.8" y="-28530" width="160" height="126.25" as="geometry" />
        </mxCell>
        <mxCell id="CRSx_ae5sVd4tHKQdAbA-100" value="Output =&lt;div&gt;&quot;Opsi tidak valid&quot;&lt;/div&gt;" style="shape=parallelogram;perimeter=parallelogramPerimeter;whiteSpace=wrap;html=1;fixedSize=1;fillColor=#FAD9D5;strokeColor=#D0CEE2;fontColor=#1A1A1A;strokeWidth=2;labelBackgroundColor=none;" parent="WIyWlLk6GJQsqaUBKTNV-1" vertex="1">
          <mxGeometry x="1950" y="-28556.25" width="120" height="60" as="geometry" />
        </mxCell>
        <mxCell id="CRSx_ae5sVd4tHKQdAbA-102" value="" style="endArrow=classic;html=1;rounded=0;strokeColor=#09555B;fontColor=default;exitX=0;exitY=0.5;exitDx=0;exitDy=0;entryX=0;entryY=0.5;entryDx=0;entryDy=0;labelBackgroundColor=none;" parent="WIyWlLk6GJQsqaUBKTNV-1" source="CRSx_ae5sVd4tHKQdAbA-100" target="zbg4pSojLmp6s8H_3mv2-20" edge="1">
          <mxGeometry width="50" height="50" relative="1" as="geometry">
            <mxPoint x="2350" y="-28570" as="sourcePoint" />
            <mxPoint x="2240" y="-29430" as="targetPoint" />
            <Array as="points">
              <mxPoint x="1730" y="-28526" />
              <mxPoint x="1730" y="-29345" />
            </Array>
          </mxGeometry>
        </mxCell>
        <mxCell id="CRSx_ae5sVd4tHKQdAbA-103" value="False" style="text;html=1;align=center;verticalAlign=middle;resizable=0;points=[];autosize=1;strokeColor=none;fillColor=none;fontColor=#1A1A1A;labelBackgroundColor=none;" parent="WIyWlLk6GJQsqaUBKTNV-1" vertex="1">
          <mxGeometry x="2115" y="-28552" width="50" height="30" as="geometry" />
        </mxCell>
        <mxCell id="CRSx_ae5sVd4tHKQdAbA-104" value="True" style="text;html=1;align=center;verticalAlign=middle;resizable=0;points=[];autosize=1;strokeColor=none;fillColor=none;fontColor=#1A1A1A;labelBackgroundColor=none;" parent="WIyWlLk6GJQsqaUBKTNV-1" vertex="1">
          <mxGeometry x="2395" y="-28552" width="50" height="30" as="geometry" />
        </mxCell>
        <mxCell id="CRSx_ae5sVd4tHKQdAbA-108" value="" style="edgeStyle=orthogonalEdgeStyle;rounded=0;orthogonalLoop=1;jettySize=auto;html=1;strokeColor=#09555B;fontColor=default;labelBackgroundColor=none;" parent="WIyWlLk6GJQsqaUBKTNV-1" source="CRSx_ae5sVd4tHKQdAbA-105" target="CRSx_ae5sVd4tHKQdAbA-107" edge="1">
          <mxGeometry relative="1" as="geometry" />
        </mxCell>
        <mxCell id="CRSx_ae5sVd4tHKQdAbA-105" value="Input = 1/2/3/4" style="shape=parallelogram;perimeter=parallelogramPerimeter;whiteSpace=wrap;html=1;fixedSize=1;fillColor=#FAD9D5;strokeColor=#D0CEE2;fontColor=#1A1A1A;strokeWidth=2;labelBackgroundColor=none;" parent="WIyWlLk6GJQsqaUBKTNV-1" vertex="1">
          <mxGeometry x="2500" y="-28385.004999999997" width="120" height="60" as="geometry" />
        </mxCell>
        <mxCell id="CRSx_ae5sVd4tHKQdAbA-111" value="" style="edgeStyle=orthogonalEdgeStyle;rounded=0;orthogonalLoop=1;jettySize=auto;html=1;strokeColor=#09555B;fontColor=default;labelBackgroundColor=none;" parent="WIyWlLk6GJQsqaUBKTNV-1" source="CRSx_ae5sVd4tHKQdAbA-107" target="CRSx_ae5sVd4tHKQdAbA-109" edge="1">
          <mxGeometry relative="1" as="geometry" />
        </mxCell>
        <mxCell id="CRSx_ae5sVd4tHKQdAbA-114" value="" style="edgeStyle=orthogonalEdgeStyle;rounded=0;orthogonalLoop=1;jettySize=auto;html=1;strokeColor=#09555B;fontColor=default;labelBackgroundColor=none;" parent="WIyWlLk6GJQsqaUBKTNV-1" source="CRSx_ae5sVd4tHKQdAbA-107" target="CRSx_ae5sVd4tHKQdAbA-113" edge="1">
          <mxGeometry relative="1" as="geometry" />
        </mxCell>
        <mxCell id="CRSx_ae5sVd4tHKQdAbA-107" value="if == 1" style="rhombus;whiteSpace=wrap;html=1;fillColor=#FAD9D5;strokeColor=#D0CEE2;fontColor=#1A1A1A;strokeWidth=2;labelBackgroundColor=none;" parent="WIyWlLk6GJQsqaUBKTNV-1" vertex="1">
          <mxGeometry x="2485" y="-28310" width="150" height="80" as="geometry" />
        </mxCell>
        <mxCell id="CRSx_ae5sVd4tHKQdAbA-109" value="Output&lt;div&gt;List kendaraan:&lt;/div&gt;&lt;div&gt;1. Mpbil CRV&lt;/div&gt;&lt;div&gt;2. Mobil Pajero&lt;/div&gt;&lt;div&gt;3.Mobil Fortuner&lt;/div&gt;&lt;div&gt;4. Motor CBR 250&lt;/div&gt;&lt;div&gt;5, Motor R15 V3&lt;/div&gt;" style="shape=parallelogram;perimeter=parallelogramPerimeter;whiteSpace=wrap;html=1;fixedSize=1;fillColor=#FAD9D5;strokeColor=#D0CEE2;fontColor=#1A1A1A;strokeWidth=2;labelBackgroundColor=none;" parent="WIyWlLk6GJQsqaUBKTNV-1" vertex="1">
          <mxGeometry x="2720" y="-28325" width="156.81" height="110" as="geometry" />
        </mxCell>
        <mxCell id="CRSx_ae5sVd4tHKQdAbA-112" value="True" style="text;html=1;align=center;verticalAlign=middle;resizable=0;points=[];autosize=1;strokeColor=none;fillColor=none;fontColor=#1A1A1A;labelBackgroundColor=none;" parent="WIyWlLk6GJQsqaUBKTNV-1" vertex="1">
          <mxGeometry x="2643.8" y="-28302" width="50" height="30" as="geometry" />
        </mxCell>
        <mxCell id="CRSx_ae5sVd4tHKQdAbA-119" value="" style="edgeStyle=orthogonalEdgeStyle;rounded=0;orthogonalLoop=1;jettySize=auto;html=1;strokeColor=#09555B;fontColor=default;labelBackgroundColor=none;" parent="WIyWlLk6GJQsqaUBKTNV-1" source="CRSx_ae5sVd4tHKQdAbA-113" target="CRSx_ae5sVd4tHKQdAbA-118" edge="1">
          <mxGeometry relative="1" as="geometry" />
        </mxCell>
        <mxCell id="CRSx_ae5sVd4tHKQdAbA-136" value="" style="edgeStyle=orthogonalEdgeStyle;rounded=0;orthogonalLoop=1;jettySize=auto;html=1;strokeColor=#09555B;fontColor=default;labelBackgroundColor=none;" parent="WIyWlLk6GJQsqaUBKTNV-1" source="CRSx_ae5sVd4tHKQdAbA-113" target="CRSx_ae5sVd4tHKQdAbA-135" edge="1">
          <mxGeometry relative="1" as="geometry" />
        </mxCell>
        <mxCell id="CRSx_ae5sVd4tHKQdAbA-113" value="if == 2" style="rhombus;whiteSpace=wrap;html=1;fillColor=#FAD9D5;strokeColor=#D0CEE2;fontColor=#1A1A1A;strokeWidth=2;labelBackgroundColor=none;" parent="WIyWlLk6GJQsqaUBKTNV-1" vertex="1">
          <mxGeometry x="2245" y="-28200" width="150" height="80" as="geometry" />
        </mxCell>
        <mxCell id="CRSx_ae5sVd4tHKQdAbA-115" value="False" style="text;html=1;align=center;verticalAlign=middle;resizable=0;points=[];autosize=1;strokeColor=none;fillColor=none;fontColor=#1A1A1A;labelBackgroundColor=none;" parent="WIyWlLk6GJQsqaUBKTNV-1" vertex="1">
          <mxGeometry x="2415" y="-28302" width="50" height="30" as="geometry" />
        </mxCell>
        <mxCell id="CRSx_ae5sVd4tHKQdAbA-121" value="" style="edgeStyle=orthogonalEdgeStyle;rounded=0;orthogonalLoop=1;jettySize=auto;html=1;strokeColor=#09555B;fontColor=default;exitX=0.5;exitY=1;exitDx=0;exitDy=0;labelBackgroundColor=none;" parent="WIyWlLk6GJQsqaUBKTNV-1" source="CRSx_ae5sVd4tHKQdAbA-118" target="CRSx_ae5sVd4tHKQdAbA-120" edge="1">
          <mxGeometry relative="1" as="geometry">
            <mxPoint x="2551.25" y="-27970" as="sourcePoint" />
          </mxGeometry>
        </mxCell>
        <mxCell id="CRSx_ae5sVd4tHKQdAbA-118" value="Output&lt;div&gt;List kendaraan:&lt;/div&gt;&lt;div&gt;1. Mpbil CRV&lt;/div&gt;&lt;div&gt;2. Mobil Pajero&lt;/div&gt;&lt;div&gt;3.Mobil Fortuner&lt;/div&gt;&lt;div&gt;4. Motor CBR 250&lt;/div&gt;&lt;div&gt;5, Motor R15 V3&lt;/div&gt;" style="shape=parallelogram;perimeter=parallelogramPerimeter;whiteSpace=wrap;html=1;fixedSize=1;fillColor=#FAD9D5;strokeColor=#D0CEE2;fontColor=#1A1A1A;strokeWidth=2;labelBackgroundColor=none;" parent="WIyWlLk6GJQsqaUBKTNV-1" vertex="1">
          <mxGeometry x="2471.25" y="-28160" width="156.81" height="110" as="geometry" />
        </mxCell>
        <mxCell id="CRSx_ae5sVd4tHKQdAbA-127" value="" style="edgeStyle=orthogonalEdgeStyle;rounded=0;orthogonalLoop=1;jettySize=auto;html=1;strokeColor=#09555B;fontColor=default;labelBackgroundColor=none;" parent="WIyWlLk6GJQsqaUBKTNV-1" source="CRSx_ae5sVd4tHKQdAbA-120" target="CRSx_ae5sVd4tHKQdAbA-126" edge="1">
          <mxGeometry relative="1" as="geometry" />
        </mxCell>
        <mxCell id="CRSx_ae5sVd4tHKQdAbA-120" value="Input = Pilih nomor kendaraan untuk disewa" style="shape=parallelogram;perimeter=parallelogramPerimeter;whiteSpace=wrap;html=1;fixedSize=1;fillColor=#FAD9D5;strokeColor=#D0CEE2;fontColor=#1A1A1A;strokeWidth=2;labelBackgroundColor=none;" parent="WIyWlLk6GJQsqaUBKTNV-1" vertex="1">
          <mxGeometry x="2469.65" y="-27930" width="160" height="50" as="geometry" />
        </mxCell>
        <mxCell id="CRSx_ae5sVd4tHKQdAbA-124" value="&lt;div&gt;Output=&lt;/div&gt;&quot;Kendaraan berhasil disewa&quot;" style="shape=parallelogram;perimeter=parallelogramPerimeter;whiteSpace=wrap;html=1;fixedSize=1;fillColor=#FAD9D5;strokeColor=#D0CEE2;fontColor=#1A1A1A;strokeWidth=2;labelBackgroundColor=none;" parent="WIyWlLk6GJQsqaUBKTNV-1" vertex="1">
          <mxGeometry x="2895" y="-27855" width="135" height="60" as="geometry" />
        </mxCell>
        <mxCell id="CRSx_ae5sVd4tHKQdAbA-130" value="" style="edgeStyle=orthogonalEdgeStyle;rounded=0;orthogonalLoop=1;jettySize=auto;html=1;strokeColor=#09555B;fontColor=default;labelBackgroundColor=none;" parent="WIyWlLk6GJQsqaUBKTNV-1" source="CRSx_ae5sVd4tHKQdAbA-126" target="CRSx_ae5sVd4tHKQdAbA-129" edge="1">
          <mxGeometry relative="1" as="geometry" />
        </mxCell>
        <mxCell id="CRSx_ae5sVd4tHKQdAbA-138" value="" style="edgeStyle=orthogonalEdgeStyle;rounded=0;orthogonalLoop=1;jettySize=auto;html=1;strokeColor=#09555B;fontColor=default;labelBackgroundColor=none;" parent="WIyWlLk6GJQsqaUBKTNV-1" source="CRSx_ae5sVd4tHKQdAbA-126" target="CRSx_ae5sVd4tHKQdAbA-137" edge="1">
          <mxGeometry relative="1" as="geometry" />
        </mxCell>
        <mxCell id="CRSx_ae5sVd4tHKQdAbA-126" value="if in kendaraan" style="rhombus;whiteSpace=wrap;html=1;fillColor=#FAD9D5;strokeColor=#D0CEE2;fontColor=#1A1A1A;strokeWidth=2;labelBackgroundColor=none;" parent="WIyWlLk6GJQsqaUBKTNV-1" vertex="1">
          <mxGeometry x="2477.5" y="-27865" width="135" height="80" as="geometry" />
        </mxCell>
        <mxCell id="CRSx_ae5sVd4tHKQdAbA-128" value="True" style="text;html=1;align=center;verticalAlign=middle;resizable=0;points=[];autosize=1;strokeColor=none;fillColor=none;fontColor=#1A1A1A;labelBackgroundColor=none;" parent="WIyWlLk6GJQsqaUBKTNV-1" vertex="1">
          <mxGeometry x="2630.05" y="-27855" width="50" height="30" as="geometry" />
        </mxCell>
        <mxCell id="CRSx_ae5sVd4tHKQdAbA-129" value="Output &quot;Nomor kendaraan tidak valid&quot;" style="shape=parallelogram;perimeter=parallelogramPerimeter;whiteSpace=wrap;html=1;fixedSize=1;fillColor=#FAD9D5;strokeColor=#D0CEE2;fontColor=#1A1A1A;strokeWidth=2;labelBackgroundColor=none;" parent="WIyWlLk6GJQsqaUBKTNV-1" vertex="1">
          <mxGeometry x="2285" y="-27855" width="135" height="60" as="geometry" />
        </mxCell>
        <mxCell id="CRSx_ae5sVd4tHKQdAbA-133" value="False" style="text;html=1;align=center;verticalAlign=middle;resizable=0;points=[];autosize=1;strokeColor=none;fillColor=none;fontColor=#1A1A1A;labelBackgroundColor=none;" parent="WIyWlLk6GJQsqaUBKTNV-1" vertex="1">
          <mxGeometry x="2431.25" y="-27847" width="50" height="30" as="geometry" />
        </mxCell>
        <mxCell id="CRSx_ae5sVd4tHKQdAbA-134" value="True" style="text;html=1;align=center;verticalAlign=middle;resizable=0;points=[];autosize=1;strokeColor=none;fillColor=none;fontColor=#1A1A1A;labelBackgroundColor=none;" parent="WIyWlLk6GJQsqaUBKTNV-1" vertex="1">
          <mxGeometry x="2395" y="-28192" width="50" height="30" as="geometry" />
        </mxCell>
        <mxCell id="CRSx_ae5sVd4tHKQdAbA-156" value="" style="edgeStyle=orthogonalEdgeStyle;rounded=0;orthogonalLoop=1;jettySize=auto;html=1;strokeColor=#09555B;fontColor=default;labelBackgroundColor=none;" parent="WIyWlLk6GJQsqaUBKTNV-1" source="CRSx_ae5sVd4tHKQdAbA-135" target="CRSx_ae5sVd4tHKQdAbA-152" edge="1">
          <mxGeometry relative="1" as="geometry" />
        </mxCell>
        <mxCell id="CRSx_ae5sVd4tHKQdAbA-162" value="" style="edgeStyle=orthogonalEdgeStyle;rounded=0;orthogonalLoop=1;jettySize=auto;html=1;strokeColor=#09555B;fontColor=default;labelBackgroundColor=none;" parent="WIyWlLk6GJQsqaUBKTNV-1" source="CRSx_ae5sVd4tHKQdAbA-135" target="CRSx_ae5sVd4tHKQdAbA-161" edge="1">
          <mxGeometry relative="1" as="geometry" />
        </mxCell>
        <mxCell id="CRSx_ae5sVd4tHKQdAbA-135" value="if == 3" style="rhombus;whiteSpace=wrap;html=1;fillColor=#FAD9D5;strokeColor=#D0CEE2;fontColor=#1A1A1A;strokeWidth=2;labelBackgroundColor=none;" parent="WIyWlLk6GJQsqaUBKTNV-1" vertex="1">
          <mxGeometry x="1788.4499999999998" y="-28100" width="150" height="80" as="geometry" />
        </mxCell>
        <mxCell id="CRSx_ae5sVd4tHKQdAbA-139" value="" style="edgeStyle=orthogonalEdgeStyle;rounded=0;orthogonalLoop=1;jettySize=auto;html=1;strokeColor=#09555B;fontColor=default;labelBackgroundColor=none;" parent="WIyWlLk6GJQsqaUBKTNV-1" source="CRSx_ae5sVd4tHKQdAbA-137" target="CRSx_ae5sVd4tHKQdAbA-124" edge="1">
          <mxGeometry relative="1" as="geometry" />
        </mxCell>
        <mxCell id="CRSx_ae5sVd4tHKQdAbA-137" value="Kendaraan - nomor inputan" style="whiteSpace=wrap;html=1;fillColor=#FAD9D5;strokeColor=#D0CEE2;fontColor=#1A1A1A;strokeWidth=2;labelBackgroundColor=none;" parent="WIyWlLk6GJQsqaUBKTNV-1" vertex="1">
          <mxGeometry x="2705" y="-27855" width="120" height="60" as="geometry" />
        </mxCell>
        <mxCell id="CRSx_ae5sVd4tHKQdAbA-142" value="" style="edgeStyle=orthogonalEdgeStyle;rounded=0;orthogonalLoop=1;jettySize=auto;html=1;strokeColor=#09555B;fontColor=default;labelBackgroundColor=none;" parent="WIyWlLk6GJQsqaUBKTNV-1" source="CRSx_ae5sVd4tHKQdAbA-140" target="zbg4pSojLmp6s8H_3mv2-72" edge="1">
          <mxGeometry relative="1" as="geometry" />
        </mxCell>
        <mxCell id="CRSx_ae5sVd4tHKQdAbA-140" value="Kendaraan + 1" style="whiteSpace=wrap;html=1;fillColor=#FAD9D5;strokeColor=#D0CEE2;fontColor=#1A1A1A;strokeWidth=2;labelBackgroundColor=none;" parent="WIyWlLk6GJQsqaUBKTNV-1" vertex="1">
          <mxGeometry x="3320.02" y="-26996.97" width="120" height="60" as="geometry" />
        </mxCell>
        <mxCell id="CRSx_ae5sVd4tHKQdAbA-145" value="" style="edgeStyle=orthogonalEdgeStyle;rounded=0;orthogonalLoop=1;jettySize=auto;html=1;strokeColor=#09555B;fontColor=default;labelBackgroundColor=none;" parent="WIyWlLk6GJQsqaUBKTNV-1" source="CRSx_ae5sVd4tHKQdAbA-143" target="CRSx_ae5sVd4tHKQdAbA-62" edge="1">
          <mxGeometry relative="1" as="geometry" />
        </mxCell>
        <mxCell id="CRSx_ae5sVd4tHKQdAbA-143" value="Kendaraan - 1" style="whiteSpace=wrap;html=1;fillColor=#FAD9D5;strokeColor=#D0CEE2;fontColor=#1A1A1A;strokeWidth=2;labelBackgroundColor=none;" parent="WIyWlLk6GJQsqaUBKTNV-1" vertex="1">
          <mxGeometry x="1900.0000000000002" y="-26590" width="120" height="60" as="geometry" />
        </mxCell>
        <mxCell id="CRSx_ae5sVd4tHKQdAbA-146" value="False" style="text;html=1;align=center;verticalAlign=middle;resizable=0;points=[];autosize=1;strokeColor=none;fillColor=none;fontColor=#1A1A1A;labelBackgroundColor=none;" parent="WIyWlLk6GJQsqaUBKTNV-1" vertex="1">
          <mxGeometry x="2140" y="-28192" width="50" height="30" as="geometry" />
        </mxCell>
        <mxCell id="CRSx_ae5sVd4tHKQdAbA-149" value="True" style="text;html=1;align=center;verticalAlign=middle;resizable=0;points=[];autosize=1;strokeColor=none;fillColor=none;fontColor=#1A1A1A;labelBackgroundColor=none;" parent="WIyWlLk6GJQsqaUBKTNV-1" vertex="1">
          <mxGeometry x="1946.82" y="-28092" width="50" height="30" as="geometry" />
        </mxCell>
        <mxCell id="CRSx_ae5sVd4tHKQdAbA-155" value="" style="edgeStyle=orthogonalEdgeStyle;rounded=0;orthogonalLoop=1;jettySize=auto;html=1;strokeColor=#09555B;fontColor=default;labelBackgroundColor=none;" parent="WIyWlLk6GJQsqaUBKTNV-1" source="CRSx_ae5sVd4tHKQdAbA-152" target="CRSx_ae5sVd4tHKQdAbA-154" edge="1">
          <mxGeometry relative="1" as="geometry" />
        </mxCell>
        <mxCell id="CRSx_ae5sVd4tHKQdAbA-152" value="Output&lt;div&gt;List kendaraan disewa&lt;/div&gt;&lt;div&gt;1. Mpbil CRV&lt;/div&gt;&lt;div&gt;2. Mobil Pajero&lt;/div&gt;&lt;div&gt;3.Mobil Fortuner&lt;/div&gt;&lt;div&gt;4. Motor CBR 250&lt;/div&gt;&lt;div&gt;5, Motor R15 V3&lt;/div&gt;" style="shape=parallelogram;perimeter=parallelogramPerimeter;whiteSpace=wrap;html=1;fixedSize=1;fillColor=#FAD9D5;strokeColor=#D0CEE2;fontColor=#1A1A1A;strokeWidth=2;labelBackgroundColor=none;" parent="WIyWlLk6GJQsqaUBKTNV-1" vertex="1">
          <mxGeometry x="1994.79" y="-28115" width="165.21" height="110" as="geometry" />
        </mxCell>
        <mxCell id="CRSx_ae5sVd4tHKQdAbA-167" value="" style="edgeStyle=orthogonalEdgeStyle;rounded=0;orthogonalLoop=1;jettySize=auto;html=1;strokeColor=#09555B;fontColor=default;labelBackgroundColor=none;" parent="WIyWlLk6GJQsqaUBKTNV-1" source="CRSx_ae5sVd4tHKQdAbA-154" target="CRSx_ae5sVd4tHKQdAbA-166" edge="1">
          <mxGeometry relative="1" as="geometry" />
        </mxCell>
        <mxCell id="CRSx_ae5sVd4tHKQdAbA-154" value="Input&lt;div&gt;Pilih nomor kendaraa untuk dikembalikasn&lt;/div&gt;" style="shape=parallelogram;perimeter=parallelogramPerimeter;whiteSpace=wrap;html=1;fixedSize=1;fillColor=#FAD9D5;strokeColor=#D0CEE2;fontColor=#1A1A1A;strokeWidth=2;labelBackgroundColor=none;" parent="WIyWlLk6GJQsqaUBKTNV-1" vertex="1">
          <mxGeometry x="1994.22" y="-27925" width="165.21" height="60" as="geometry" />
        </mxCell>
        <mxCell id="CRSx_ae5sVd4tHKQdAbA-169" value="" style="edgeStyle=orthogonalEdgeStyle;rounded=0;orthogonalLoop=1;jettySize=auto;html=1;strokeColor=#09555B;fontColor=default;labelBackgroundColor=none;" parent="WIyWlLk6GJQsqaUBKTNV-1" source="CRSx_ae5sVd4tHKQdAbA-159" target="CRSx_ae5sVd4tHKQdAbA-164" edge="1">
          <mxGeometry relative="1" as="geometry" />
        </mxCell>
        <mxCell id="CRSx_ae5sVd4tHKQdAbA-159" value="Kendaraan + 1" style="whiteSpace=wrap;html=1;fillColor=#FAD9D5;strokeColor=#D0CEE2;fontColor=#1A1A1A;strokeWidth=2;labelBackgroundColor=none;" parent="WIyWlLk6GJQsqaUBKTNV-1" vertex="1">
          <mxGeometry x="2211.605" y="-27785" width="120" height="60" as="geometry" />
        </mxCell>
        <mxCell id="CRSx_ae5sVd4tHKQdAbA-176" value="" style="edgeStyle=orthogonalEdgeStyle;rounded=0;orthogonalLoop=1;jettySize=auto;html=1;strokeColor=#09555B;fontColor=default;labelBackgroundColor=none;" parent="WIyWlLk6GJQsqaUBKTNV-1" source="CRSx_ae5sVd4tHKQdAbA-161" target="CRSx_ae5sVd4tHKQdAbA-175" edge="1">
          <mxGeometry relative="1" as="geometry" />
        </mxCell>
        <mxCell id="CRSx_ae5sVd4tHKQdAbA-179" value="" style="edgeStyle=orthogonalEdgeStyle;rounded=0;orthogonalLoop=1;jettySize=auto;html=1;strokeColor=#09555B;fontColor=default;labelBackgroundColor=none;" parent="WIyWlLk6GJQsqaUBKTNV-1" source="CRSx_ae5sVd4tHKQdAbA-161" target="CRSx_ae5sVd4tHKQdAbA-178" edge="1">
          <mxGeometry relative="1" as="geometry" />
        </mxCell>
        <mxCell id="CRSx_ae5sVd4tHKQdAbA-161" value="if == 4" style="rhombus;whiteSpace=wrap;html=1;fillColor=#FAD9D5;strokeColor=#D0CEE2;fontColor=#1A1A1A;strokeWidth=2;labelBackgroundColor=none;" parent="WIyWlLk6GJQsqaUBKTNV-1" vertex="1">
          <mxGeometry x="1465.0499999999997" y="-28005" width="150" height="80" as="geometry" />
        </mxCell>
        <mxCell id="CRSx_ae5sVd4tHKQdAbA-163" value="False" style="text;html=1;align=center;verticalAlign=middle;resizable=0;points=[];autosize=1;strokeColor=none;fillColor=none;fontColor=#1A1A1A;labelBackgroundColor=none;" parent="WIyWlLk6GJQsqaUBKTNV-1" vertex="1">
          <mxGeometry x="1685" y="-28092" width="50" height="30" as="geometry" />
        </mxCell>
        <mxCell id="CRSx_ae5sVd4tHKQdAbA-164" value="Output&lt;div&gt;&quot;Kendaraaqn berhasil dikembalikan&quot;&lt;/div&gt;" style="shape=parallelogram;perimeter=parallelogramPerimeter;whiteSpace=wrap;html=1;fixedSize=1;fillColor=#FAD9D5;strokeColor=#D0CEE2;fontColor=#1A1A1A;strokeWidth=2;labelBackgroundColor=none;" parent="WIyWlLk6GJQsqaUBKTNV-1" vertex="1">
          <mxGeometry x="2202.9100000000003" y="-27650" width="137.39" height="60" as="geometry" />
        </mxCell>
        <mxCell id="CRSx_ae5sVd4tHKQdAbA-168" value="" style="edgeStyle=orthogonalEdgeStyle;rounded=0;orthogonalLoop=1;jettySize=auto;html=1;strokeColor=#09555B;fontColor=default;labelBackgroundColor=none;" parent="WIyWlLk6GJQsqaUBKTNV-1" source="CRSx_ae5sVd4tHKQdAbA-166" target="CRSx_ae5sVd4tHKQdAbA-159" edge="1">
          <mxGeometry relative="1" as="geometry" />
        </mxCell>
        <mxCell id="CRSx_ae5sVd4tHKQdAbA-171" value="" style="edgeStyle=orthogonalEdgeStyle;rounded=0;orthogonalLoop=1;jettySize=auto;html=1;strokeColor=#09555B;fontColor=default;labelBackgroundColor=none;" parent="WIyWlLk6GJQsqaUBKTNV-1" source="CRSx_ae5sVd4tHKQdAbA-166" target="CRSx_ae5sVd4tHKQdAbA-170" edge="1">
          <mxGeometry relative="1" as="geometry" />
        </mxCell>
        <mxCell id="CRSx_ae5sVd4tHKQdAbA-166" value="if in kendaraan" style="rhombus;whiteSpace=wrap;html=1;fillColor=#FAD9D5;strokeColor=#D0CEE2;fontColor=#1A1A1A;strokeWidth=2;labelBackgroundColor=none;" parent="WIyWlLk6GJQsqaUBKTNV-1" vertex="1">
          <mxGeometry x="1996.8200000000002" y="-27795" width="162.61" height="80" as="geometry" />
        </mxCell>
        <mxCell id="CRSx_ae5sVd4tHKQdAbA-170" value="Output&lt;div&gt;&quot;Nomor kendaran Tidak valid&quot;&lt;/div&gt;" style="shape=parallelogram;perimeter=parallelogramPerimeter;whiteSpace=wrap;html=1;fixedSize=1;fillColor=#FAD9D5;strokeColor=#D0CEE2;fontColor=#1A1A1A;strokeWidth=2;labelBackgroundColor=none;" parent="WIyWlLk6GJQsqaUBKTNV-1" vertex="1">
          <mxGeometry x="1800" y="-27785" width="123.45" height="60" as="geometry" />
        </mxCell>
        <mxCell id="CRSx_ae5sVd4tHKQdAbA-172" value="True" style="text;html=1;align=center;verticalAlign=middle;resizable=0;points=[];autosize=1;strokeColor=none;fillColor=none;fontColor=#1A1A1A;labelBackgroundColor=none;" parent="WIyWlLk6GJQsqaUBKTNV-1" vertex="1">
          <mxGeometry x="2159.43" y="-27785" width="50" height="30" as="geometry" />
        </mxCell>
        <mxCell id="CRSx_ae5sVd4tHKQdAbA-173" value="False" style="text;html=1;align=center;verticalAlign=middle;resizable=0;points=[];autosize=1;strokeColor=none;fillColor=none;fontColor=#1A1A1A;labelBackgroundColor=none;" parent="WIyWlLk6GJQsqaUBKTNV-1" vertex="1">
          <mxGeometry x="1938.45" y="-27785" width="50" height="30" as="geometry" />
        </mxCell>
        <mxCell id="CRSx_ae5sVd4tHKQdAbA-175" value="Output&lt;div&gt;&quot;Logout berhasil&quot;&lt;/div&gt;" style="shape=parallelogram;perimeter=parallelogramPerimeter;whiteSpace=wrap;html=1;fixedSize=1;fillColor=#FAD9D5;strokeColor=#D0CEE2;fontColor=#1A1A1A;strokeWidth=2;labelBackgroundColor=none;" parent="WIyWlLk6GJQsqaUBKTNV-1" vertex="1">
          <mxGeometry x="1699.9999999999998" y="-27995" width="120" height="60" as="geometry" />
        </mxCell>
        <mxCell id="CRSx_ae5sVd4tHKQdAbA-177" value="True" style="text;html=1;align=center;verticalAlign=middle;resizable=0;points=[];autosize=1;strokeColor=none;fillColor=none;fontColor=#1A1A1A;labelBackgroundColor=none;" parent="WIyWlLk6GJQsqaUBKTNV-1" vertex="1">
          <mxGeometry x="1635" y="-27992" width="50" height="30" as="geometry" />
        </mxCell>
        <mxCell id="CRSx_ae5sVd4tHKQdAbA-178" value="Output =&amp;nbsp;&lt;div&gt;&quot;Opsi tidak valid&quot;&lt;/div&gt;" style="shape=parallelogram;perimeter=parallelogramPerimeter;whiteSpace=wrap;html=1;fixedSize=1;fillColor=#FAD9D5;strokeColor=#D0CEE2;fontColor=#1A1A1A;strokeWidth=2;labelBackgroundColor=none;" parent="WIyWlLk6GJQsqaUBKTNV-1" vertex="1">
          <mxGeometry x="1250.0499999999997" y="-27995" width="120" height="60" as="geometry" />
        </mxCell>
        <mxCell id="CRSx_ae5sVd4tHKQdAbA-180" value="False" style="text;html=1;align=center;verticalAlign=middle;resizable=0;points=[];autosize=1;strokeColor=none;fillColor=none;fontColor=#1A1A1A;labelBackgroundColor=none;" parent="WIyWlLk6GJQsqaUBKTNV-1" vertex="1">
          <mxGeometry x="1395" y="-27992" width="50" height="30" as="geometry" />
        </mxCell>
        <mxCell id="CRSx_ae5sVd4tHKQdAbA-181" value="" style="endArrow=classic;html=1;rounded=0;strokeColor=#09555B;fontColor=default;exitX=0.591;exitY=-0.006;exitDx=0;exitDy=0;exitPerimeter=0;entryX=0.041;entryY=0.56;entryDx=0;entryDy=0;entryPerimeter=0;labelBackgroundColor=none;" parent="WIyWlLk6GJQsqaUBKTNV-1" source="CRSx_ae5sVd4tHKQdAbA-178" target="CRSx_ae5sVd4tHKQdAbA-98" edge="1">
          <mxGeometry width="50" height="50" relative="1" as="geometry">
            <mxPoint x="1480" y="-28110" as="sourcePoint" />
            <mxPoint x="2334" y="-28390" as="targetPoint" />
            <Array as="points">
              <mxPoint x="1321" y="-28459" />
            </Array>
          </mxGeometry>
        </mxCell>
        <mxCell id="CRSx_ae5sVd4tHKQdAbA-182" value="" style="endArrow=classic;html=1;rounded=0;strokeColor=#09555B;fontColor=default;exitX=0.419;exitY=0.994;exitDx=0;exitDy=0;exitPerimeter=0;labelBackgroundColor=none;entryX=0;entryY=0.75;entryDx=0;entryDy=0;" parent="WIyWlLk6GJQsqaUBKTNV-1" source="CRSx_ae5sVd4tHKQdAbA-175" target="CRSx_ae5sVd4tHKQdAbA-84" edge="1">
          <mxGeometry width="50" height="50" relative="1" as="geometry">
            <mxPoint x="1800" y="-27710" as="sourcePoint" />
            <mxPoint x="2864" y="-26120" as="targetPoint" />
            <Array as="points">
              <mxPoint x="1750" y="-27350" />
              <mxPoint x="1240" y="-27350" />
              <mxPoint x="1240" y="-26110" />
            </Array>
          </mxGeometry>
        </mxCell>
        <mxCell id="rMDouBXolYxV5aWUiH1A-0" value="" style="endArrow=classic;html=1;rounded=0;exitX=0;exitY=0.5;exitDx=0;exitDy=0;entryX=0.012;entryY=0.873;entryDx=0;entryDy=0;entryPerimeter=0;" parent="WIyWlLk6GJQsqaUBKTNV-1" source="CRSx_ae5sVd4tHKQdAbA-89" target="zbg4pSojLmp6s8H_3mv2-20" edge="1">
          <mxGeometry width="50" height="50" relative="1" as="geometry">
            <mxPoint x="2080" y="-29060" as="sourcePoint" />
            <mxPoint x="2130" y="-29110" as="targetPoint" />
            <Array as="points">
              <mxPoint x="1780" y="-29100" />
              <mxPoint x="1780" y="-29310" />
            </Array>
          </mxGeometry>
        </mxCell>
        <mxCell id="CkM2lhjMVIzfR7jUdtt8-5" value="" style="edgeStyle=orthogonalEdgeStyle;rounded=0;orthogonalLoop=1;jettySize=auto;html=1;" parent="WIyWlLk6GJQsqaUBKTNV-1" source="CkM2lhjMVIzfR7jUdtt8-0" target="CkM2lhjMVIzfR7jUdtt8-4" edge="1">
          <mxGeometry relative="1" as="geometry" />
        </mxCell>
        <mxCell id="CkM2lhjMVIzfR7jUdtt8-0" value="if == 5" style="rhombus;whiteSpace=wrap;html=1;fillColor=#FAD9D5;strokeColor=#D0CEE2;fontColor=#1A1A1A;strokeWidth=2;labelBackgroundColor=none;" parent="WIyWlLk6GJQsqaUBKTNV-1" vertex="1">
          <mxGeometry x="1260.05" y="-26800" width="160" height="80" as="geometry" />
        </mxCell>
        <mxCell id="lw6VuNm43LP3gDmTV3IB-11" value="" style="edgeStyle=orthogonalEdgeStyle;rounded=0;orthogonalLoop=1;jettySize=auto;html=1;" edge="1" parent="WIyWlLk6GJQsqaUBKTNV-1" source="CkM2lhjMVIzfR7jUdtt8-4" target="lw6VuNm43LP3gDmTV3IB-10">
          <mxGeometry relative="1" as="geometry" />
        </mxCell>
        <mxCell id="CkM2lhjMVIzfR7jUdtt8-4" value="Input username rental&lt;div&gt;input plat rental&amp;nbsp;&lt;/div&gt;" style="shape=parallelogram;perimeter=parallelogramPerimeter;whiteSpace=wrap;html=1;fixedSize=1;fillColor=#FAD9D5;strokeColor=#D0CEE2;fontColor=#1A1A1A;strokeWidth=2;labelBackgroundColor=none;" parent="WIyWlLk6GJQsqaUBKTNV-1" vertex="1">
          <mxGeometry x="1265.07" y="-26632" width="149.95" height="60" as="geometry" />
        </mxCell>
        <mxCell id="lw6VuNm43LP3gDmTV3IB-0" value="True" style="text;html=1;align=center;verticalAlign=middle;resizable=0;points=[];autosize=1;strokeColor=none;fillColor=none;" vertex="1" parent="WIyWlLk6GJQsqaUBKTNV-1">
          <mxGeometry x="1345" y="-26690" width="50" height="30" as="geometry" />
        </mxCell>
        <mxCell id="lw6VuNm43LP3gDmTV3IB-1" value="False" style="text;html=1;align=center;verticalAlign=middle;resizable=0;points=[];autosize=1;strokeColor=none;fillColor=none;" vertex="1" parent="WIyWlLk6GJQsqaUBKTNV-1">
          <mxGeometry x="1115" y="-26792" width="50" height="30" as="geometry" />
        </mxCell>
        <mxCell id="lw6VuNm43LP3gDmTV3IB-3" value="" style="endArrow=classic;html=1;rounded=0;entryX=1;entryY=0.5;entryDx=0;entryDy=0;exitX=0.5;exitY=1;exitDx=0;exitDy=0;" edge="1" parent="WIyWlLk6GJQsqaUBKTNV-1" source="zbg4pSojLmp6s8H_3mv2-72" target="zbg4pSojLmp6s8H_3mv2-64">
          <mxGeometry width="50" height="50" relative="1" as="geometry">
            <mxPoint x="2840" y="-26990" as="sourcePoint" />
            <mxPoint x="2890" y="-27040" as="targetPoint" />
            <Array as="points">
              <mxPoint x="3380" y="-26710" />
              <mxPoint x="3510" y="-26710" />
              <mxPoint x="3510" y="-27390" />
            </Array>
          </mxGeometry>
        </mxCell>
        <mxCell id="lw6VuNm43LP3gDmTV3IB-4" value="" style="endArrow=classic;html=1;rounded=0;exitX=0.5;exitY=1;exitDx=0;exitDy=0;entryX=0.934;entryY=0.622;entryDx=0;entryDy=0;entryPerimeter=0;" edge="1" parent="WIyWlLk6GJQsqaUBKTNV-1" source="CRSx_ae5sVd4tHKQdAbA-2" target="zbg4pSojLmp6s8H_3mv2-64">
          <mxGeometry width="50" height="50" relative="1" as="geometry">
            <mxPoint x="2840" y="-26990" as="sourcePoint" />
            <mxPoint x="2890" y="-27040" as="targetPoint" />
            <Array as="points">
              <mxPoint x="3003" y="-26630" />
              <mxPoint x="3570" y="-26630" />
              <mxPoint x="3570" y="-27376" />
            </Array>
          </mxGeometry>
        </mxCell>
        <mxCell id="lw6VuNm43LP3gDmTV3IB-6" value="" style="endArrow=classic;html=1;rounded=0;exitX=0.5;exitY=1;exitDx=0;exitDy=0;entryX=1;entryY=0.75;entryDx=0;entryDy=0;" edge="1" parent="WIyWlLk6GJQsqaUBKTNV-1" source="CRSx_ae5sVd4tHKQdAbA-40" target="zbg4pSojLmp6s8H_3mv2-64">
          <mxGeometry width="50" height="50" relative="1" as="geometry">
            <mxPoint x="2840" y="-26750" as="sourcePoint" />
            <mxPoint x="2890" y="-26800" as="targetPoint" />
            <Array as="points">
              <mxPoint x="2811" y="-26500" />
              <mxPoint x="3610" y="-26500" />
              <mxPoint x="3610" y="-27365" />
            </Array>
          </mxGeometry>
        </mxCell>
        <mxCell id="lw6VuNm43LP3gDmTV3IB-7" value="" style="endArrow=classic;html=1;rounded=0;exitX=0.5;exitY=1;exitDx=0;exitDy=0;entryX=0.032;entryY=0.661;entryDx=0;entryDy=0;entryPerimeter=0;" edge="1" parent="WIyWlLk6GJQsqaUBKTNV-1" source="CRSx_ae5sVd4tHKQdAbA-27" target="zbg4pSojLmp6s8H_3mv2-64">
          <mxGeometry width="50" height="50" relative="1" as="geometry">
            <mxPoint x="2840" y="-26990" as="sourcePoint" />
            <mxPoint x="2890" y="-27040" as="targetPoint" />
            <Array as="points">
              <mxPoint x="2390" y="-26650" />
              <mxPoint x="2070" y="-26650" />
              <mxPoint x="2070" y="-27371" />
            </Array>
          </mxGeometry>
        </mxCell>
        <mxCell id="lw6VuNm43LP3gDmTV3IB-8" value="" style="endArrow=classic;html=1;rounded=0;exitX=0.5;exitY=0;exitDx=0;exitDy=0;entryX=0.012;entryY=0.878;entryDx=0;entryDy=0;entryPerimeter=0;" edge="1" parent="WIyWlLk6GJQsqaUBKTNV-1" source="CRSx_ae5sVd4tHKQdAbA-62" target="zbg4pSojLmp6s8H_3mv2-64">
          <mxGeometry width="50" height="50" relative="1" as="geometry">
            <mxPoint x="2150" y="-26630" as="sourcePoint" />
            <mxPoint x="2200" y="-26680" as="targetPoint" />
            <Array as="points">
              <mxPoint x="2140" y="-26740" />
              <mxPoint x="1950" y="-26740" />
              <mxPoint x="1950" y="-27345" />
            </Array>
          </mxGeometry>
        </mxCell>
        <mxCell id="lw6VuNm43LP3gDmTV3IB-9" value="" style="endArrow=classic;html=1;rounded=0;exitX=0.5;exitY=1;exitDx=0;exitDy=0;entryX=0;entryY=1;entryDx=0;entryDy=0;" edge="1" parent="WIyWlLk6GJQsqaUBKTNV-1" source="CRSx_ae5sVd4tHKQdAbA-60" target="zbg4pSojLmp6s8H_3mv2-64">
          <mxGeometry width="50" height="50" relative="1" as="geometry">
            <mxPoint x="1960" y="-26800" as="sourcePoint" />
            <mxPoint x="2010" y="-26850" as="targetPoint" />
            <Array as="points">
              <mxPoint x="1570" y="-26450" />
              <mxPoint x="2250" y="-26450" />
              <mxPoint x="2250" y="-26850" />
              <mxPoint x="2010" y="-26850" />
              <mxPoint x="2010" y="-27330" />
            </Array>
          </mxGeometry>
        </mxCell>
        <mxCell id="lw6VuNm43LP3gDmTV3IB-10" value="Output List rental" style="shape=parallelogram;perimeter=parallelogramPerimeter;whiteSpace=wrap;html=1;fixedSize=1;fillColor=#FAD9D5;strokeColor=#D0CEE2;fontColor=#1A1A1A;strokeWidth=2;labelBackgroundColor=none;" vertex="1" parent="WIyWlLk6GJQsqaUBKTNV-1">
          <mxGeometry x="1270.03" y="-26540" width="140.04" height="60" as="geometry" />
        </mxCell>
        <mxCell id="lw6VuNm43LP3gDmTV3IB-12" value="" style="endArrow=classic;html=1;rounded=0;exitX=0.5;exitY=1;exitDx=0;exitDy=0;entryX=0.176;entryY=0.987;entryDx=0;entryDy=0;entryPerimeter=0;" edge="1" parent="WIyWlLk6GJQsqaUBKTNV-1" source="lw6VuNm43LP3gDmTV3IB-10" target="zbg4pSojLmp6s8H_3mv2-64">
          <mxGeometry width="50" height="50" relative="1" as="geometry">
            <mxPoint x="1370" y="-26670" as="sourcePoint" />
            <mxPoint x="1420" y="-26720" as="targetPoint" />
            <Array as="points">
              <mxPoint x="1340" y="-26420" />
              <mxPoint x="2300" y="-26420" />
              <mxPoint x="2300" y="-26790" />
              <mxPoint x="2090" y="-26790" />
              <mxPoint x="2090" y="-27310" />
              <mxPoint x="3060" y="-27310" />
            </Array>
          </mxGeometry>
        </mxCell>
        <mxCell id="lw6VuNm43LP3gDmTV3IB-13" value="" style="edgeStyle=none;orthogonalLoop=1;jettySize=auto;html=1;rounded=0;" edge="1" parent="WIyWlLk6GJQsqaUBKTNV-1">
          <mxGeometry width="100" relative="1" as="geometry">
            <mxPoint x="2925.05" y="-29230" as="sourcePoint" />
            <mxPoint x="2975.05" y="-29230" as="targetPoint" />
            <Array as="points" />
          </mxGeometry>
        </mxCell>
        <mxCell id="lw6VuNm43LP3gDmTV3IB-14" value="" style="edgeStyle=none;orthogonalLoop=1;jettySize=auto;html=1;rounded=0;" edge="1" parent="WIyWlLk6GJQsqaUBKTNV-1">
          <mxGeometry width="100" relative="1" as="geometry">
            <mxPoint x="2805.01" y="-29073" as="sourcePoint" />
            <mxPoint x="2855.01" y="-29073" as="targetPoint" />
            <Array as="points" />
          </mxGeometry>
        </mxCell>
        <mxCell id="lw6VuNm43LP3gDmTV3IB-15" value="" style="edgeStyle=none;orthogonalLoop=1;jettySize=auto;html=1;rounded=0;" edge="1" parent="WIyWlLk6GJQsqaUBKTNV-1">
          <mxGeometry width="100" relative="1" as="geometry">
            <mxPoint x="3300" y="-29000" as="sourcePoint" />
            <mxPoint x="3360" y="-29000" as="targetPoint" />
            <Array as="points" />
          </mxGeometry>
        </mxCell>
        <mxCell id="lw6VuNm43LP3gDmTV3IB-16" value="" style="edgeStyle=none;orthogonalLoop=1;jettySize=auto;html=1;rounded=0;" edge="1" parent="WIyWlLk6GJQsqaUBKTNV-1">
          <mxGeometry width="100" relative="1" as="geometry">
            <mxPoint x="2498.46" y="-29103" as="sourcePoint" />
            <mxPoint x="2558.51" y="-29103" as="targetPoint" />
            <Array as="points" />
          </mxGeometry>
        </mxCell>
        <mxCell id="lw6VuNm43LP3gDmTV3IB-17" value="" style="edgeStyle=none;orthogonalLoop=1;jettySize=auto;html=1;rounded=0;" edge="1" parent="WIyWlLk6GJQsqaUBKTNV-1">
          <mxGeometry width="100" relative="1" as="geometry">
            <mxPoint x="1910" y="-29080.5" as="sourcePoint" />
            <mxPoint x="1960" y="-29080" as="targetPoint" />
            <Array as="points" />
          </mxGeometry>
        </mxCell>
        <mxCell id="lw6VuNm43LP3gDmTV3IB-18" value="" style="edgeStyle=none;orthogonalLoop=1;jettySize=auto;html=1;rounded=0;" edge="1" parent="WIyWlLk6GJQsqaUBKTNV-1">
          <mxGeometry width="100" relative="1" as="geometry">
            <mxPoint x="2386.25" y="-29049.5" as="sourcePoint" />
            <mxPoint x="2436.25" y="-29050" as="targetPoint" />
            <Array as="points" />
          </mxGeometry>
        </mxCell>
        <mxCell id="lw6VuNm43LP3gDmTV3IB-19" value="" style="edgeStyle=none;orthogonalLoop=1;jettySize=auto;html=1;rounded=0;exitX=0.832;exitY=0.927;exitDx=0;exitDy=0;exitPerimeter=0;" edge="1" parent="WIyWlLk6GJQsqaUBKTNV-1" source="zbg4pSojLmp6s8H_3mv2-60">
          <mxGeometry width="100" relative="1" as="geometry">
            <mxPoint x="2820" y="-28860" as="sourcePoint" />
            <mxPoint x="2900" y="-28724" as="targetPoint" />
            <Array as="points" />
          </mxGeometry>
        </mxCell>
        <mxCell id="lw6VuNm43LP3gDmTV3IB-20" value="" style="edgeStyle=none;orthogonalLoop=1;jettySize=auto;html=1;rounded=0;exitX=0.789;exitY=0.95;exitDx=0;exitDy=0;exitPerimeter=0;" edge="1" parent="WIyWlLk6GJQsqaUBKTNV-1" source="CRSx_ae5sVd4tHKQdAbA-98">
          <mxGeometry width="100" relative="1" as="geometry">
            <mxPoint x="2590" y="-28420" as="sourcePoint" />
            <mxPoint x="2660" y="-28410" as="targetPoint" />
            <Array as="points" />
          </mxGeometry>
        </mxCell>
        <mxCell id="lw6VuNm43LP3gDmTV3IB-21" value="" style="edgeStyle=none;orthogonalLoop=1;jettySize=auto;html=1;rounded=0;" edge="1" parent="WIyWlLk6GJQsqaUBKTNV-1">
          <mxGeometry width="100" relative="1" as="geometry">
            <mxPoint x="2030" y="-28500" as="sourcePoint" />
            <mxPoint x="2080" y="-28500" as="targetPoint" />
            <Array as="points" />
          </mxGeometry>
        </mxCell>
        <mxCell id="lw6VuNm43LP3gDmTV3IB-22" value="" style="edgeStyle=none;orthogonalLoop=1;jettySize=auto;html=1;rounded=0;" edge="1" parent="WIyWlLk6GJQsqaUBKTNV-1">
          <mxGeometry width="100" relative="1" as="geometry">
            <mxPoint x="2850" y="-28220" as="sourcePoint" />
            <mxPoint x="2880" y="-28220" as="targetPoint" />
            <Array as="points" />
          </mxGeometry>
        </mxCell>
        <mxCell id="lw6VuNm43LP3gDmTV3IB-23" value="" style="edgeStyle=none;orthogonalLoop=1;jettySize=auto;html=1;rounded=0;entryX=0.25;entryY=0;entryDx=0;entryDy=0;" edge="1" parent="WIyWlLk6GJQsqaUBKTNV-1" target="CRSx_ae5sVd4tHKQdAbA-105">
          <mxGeometry width="100" relative="1" as="geometry">
            <mxPoint x="2460" y="-28385" as="sourcePoint" />
            <mxPoint x="2550" y="-28390" as="targetPoint" />
            <Array as="points" />
          </mxGeometry>
        </mxCell>
        <mxCell id="lw6VuNm43LP3gDmTV3IB-24" value="" style="edgeStyle=none;orthogonalLoop=1;jettySize=auto;html=1;rounded=0;" edge="1" parent="WIyWlLk6GJQsqaUBKTNV-1">
          <mxGeometry width="100" relative="1" as="geometry">
            <mxPoint x="2575.85" y="-28050" as="sourcePoint" />
            <mxPoint x="2629.65" y="-28050" as="targetPoint" />
            <Array as="points" />
          </mxGeometry>
        </mxCell>
        <mxCell id="lw6VuNm43LP3gDmTV3IB-25" value="" style="edgeStyle=none;orthogonalLoop=1;jettySize=auto;html=1;rounded=0;" edge="1" parent="WIyWlLk6GJQsqaUBKTNV-1">
          <mxGeometry width="100" relative="1" as="geometry">
            <mxPoint x="2110" y="-28010" as="sourcePoint" />
            <mxPoint x="2175" y="-28010" as="targetPoint" />
            <Array as="points" />
          </mxGeometry>
        </mxCell>
        <mxCell id="lw6VuNm43LP3gDmTV3IB-26" value="" style="edgeStyle=none;orthogonalLoop=1;jettySize=auto;html=1;rounded=0;" edge="1" parent="WIyWlLk6GJQsqaUBKTNV-1">
          <mxGeometry width="100" relative="1" as="geometry">
            <mxPoint x="1780" y="-27940" as="sourcePoint" />
            <mxPoint x="1830" y="-27940" as="targetPoint" />
            <Array as="points" />
          </mxGeometry>
        </mxCell>
        <mxCell id="lw6VuNm43LP3gDmTV3IB-27" value="" style="edgeStyle=none;orthogonalLoop=1;jettySize=auto;html=1;rounded=0;" edge="1" parent="WIyWlLk6GJQsqaUBKTNV-1">
          <mxGeometry width="100" relative="1" as="geometry">
            <mxPoint x="1330" y="-27940" as="sourcePoint" />
            <mxPoint x="1380" y="-27940" as="targetPoint" />
            <Array as="points" />
          </mxGeometry>
        </mxCell>
        <mxCell id="lw6VuNm43LP3gDmTV3IB-28" value="" style="edgeStyle=none;orthogonalLoop=1;jettySize=auto;html=1;rounded=0;" edge="1" parent="WIyWlLk6GJQsqaUBKTNV-1">
          <mxGeometry width="100" relative="1" as="geometry">
            <mxPoint x="1990" y="-27920" as="sourcePoint" />
            <mxPoint x="2040" y="-27920" as="targetPoint" />
            <Array as="points" />
          </mxGeometry>
        </mxCell>
        <mxCell id="lw6VuNm43LP3gDmTV3IB-29" value="" style="edgeStyle=none;orthogonalLoop=1;jettySize=auto;html=1;rounded=0;" edge="1" parent="WIyWlLk6GJQsqaUBKTNV-1">
          <mxGeometry width="100" relative="1" as="geometry">
            <mxPoint x="2460" y="-27925" as="sourcePoint" />
            <mxPoint x="2510.05" y="-27925" as="targetPoint" />
            <Array as="points" />
          </mxGeometry>
        </mxCell>
        <mxCell id="lw6VuNm43LP3gDmTV3IB-30" value="" style="edgeStyle=none;orthogonalLoop=1;jettySize=auto;html=1;rounded=0;" edge="1" parent="WIyWlLk6GJQsqaUBKTNV-1">
          <mxGeometry width="100" relative="1" as="geometry">
            <mxPoint x="2978.63" y="-27800" as="sourcePoint" />
            <mxPoint x="3030" y="-27800" as="targetPoint" />
            <Array as="points" />
          </mxGeometry>
        </mxCell>
        <mxCell id="lw6VuNm43LP3gDmTV3IB-31" value="" style="edgeStyle=none;orthogonalLoop=1;jettySize=auto;html=1;rounded=0;" edge="1" parent="WIyWlLk6GJQsqaUBKTNV-1">
          <mxGeometry width="100" relative="1" as="geometry">
            <mxPoint x="2365" y="-27800" as="sourcePoint" />
            <mxPoint x="2420" y="-27800" as="targetPoint" />
            <Array as="points" />
          </mxGeometry>
        </mxCell>
        <mxCell id="lw6VuNm43LP3gDmTV3IB-32" value="" style="endArrow=classic;html=1;rounded=0;exitX=0.5;exitY=1;exitDx=0;exitDy=0;entryX=1;entryY=0.5;entryDx=0;entryDy=0;" edge="1" parent="WIyWlLk6GJQsqaUBKTNV-1" source="CRSx_ae5sVd4tHKQdAbA-164" target="CRSx_ae5sVd4tHKQdAbA-98">
          <mxGeometry width="50" height="50" relative="1" as="geometry">
            <mxPoint x="2510" y="-27770" as="sourcePoint" />
            <mxPoint x="2560" y="-27820" as="targetPoint" />
            <Array as="points">
              <mxPoint x="2272" y="-27540" />
              <mxPoint x="3090" y="-27540" />
              <mxPoint x="3090" y="-28470" />
            </Array>
          </mxGeometry>
        </mxCell>
        <mxCell id="lw6VuNm43LP3gDmTV3IB-33" value="" style="endArrow=classic;html=1;rounded=0;exitX=0.5;exitY=0;exitDx=0;exitDy=0;entryX=0.939;entryY=0.618;entryDx=0;entryDy=0;entryPerimeter=0;" edge="1" parent="WIyWlLk6GJQsqaUBKTNV-1" source="CRSx_ae5sVd4tHKQdAbA-124" target="CRSx_ae5sVd4tHKQdAbA-98">
          <mxGeometry width="50" height="50" relative="1" as="geometry">
            <mxPoint x="2510" y="-27990" as="sourcePoint" />
            <mxPoint x="2560" y="-28040" as="targetPoint" />
            <Array as="points">
              <mxPoint x="2960" y="-28450" />
            </Array>
          </mxGeometry>
        </mxCell>
        <mxCell id="lw6VuNm43LP3gDmTV3IB-34" value="" style="endArrow=classic;html=1;rounded=0;exitX=0;exitY=0.25;exitDx=0;exitDy=0;entryX=0.039;entryY=0.634;entryDx=0;entryDy=0;entryPerimeter=0;" edge="1" parent="WIyWlLk6GJQsqaUBKTNV-1" source="CRSx_ae5sVd4tHKQdAbA-129" target="CRSx_ae5sVd4tHKQdAbA-98">
          <mxGeometry width="50" height="50" relative="1" as="geometry">
            <mxPoint x="2510" y="-27990" as="sourcePoint" />
            <mxPoint x="2560" y="-28040" as="targetPoint" />
            <Array as="points">
              <mxPoint x="2210" y="-27837" />
              <mxPoint x="2210" y="-28450" />
            </Array>
          </mxGeometry>
        </mxCell>
        <mxCell id="lw6VuNm43LP3gDmTV3IB-35" value="" style="edgeStyle=none;orthogonalLoop=1;jettySize=auto;html=1;rounded=0;" edge="1" parent="WIyWlLk6GJQsqaUBKTNV-1">
          <mxGeometry width="100" relative="1" as="geometry">
            <mxPoint x="2287.5" y="-27600" as="sourcePoint" />
            <mxPoint x="2352.5" y="-27600" as="targetPoint" />
            <Array as="points" />
          </mxGeometry>
        </mxCell>
        <mxCell id="lw6VuNm43LP3gDmTV3IB-36" value="" style="endArrow=classic;html=1;rounded=0;exitX=0.5;exitY=1;exitDx=0;exitDy=0;entryX=0;entryY=0.75;entryDx=0;entryDy=0;" edge="1" parent="WIyWlLk6GJQsqaUBKTNV-1" source="CRSx_ae5sVd4tHKQdAbA-170" target="CRSx_ae5sVd4tHKQdAbA-98">
          <mxGeometry width="50" height="50" relative="1" as="geometry">
            <mxPoint x="2140" y="-27900" as="sourcePoint" />
            <mxPoint x="2190" y="-27950" as="targetPoint" />
            <Array as="points">
              <mxPoint x="1860" y="-27670" />
              <mxPoint x="1620" y="-27670" />
              <mxPoint x="1620" y="-28437" />
            </Array>
          </mxGeometry>
        </mxCell>
        <mxCell id="lw6VuNm43LP3gDmTV3IB-37" value="" style="edgeStyle=none;orthogonalLoop=1;jettySize=auto;html=1;rounded=0;" edge="1" parent="WIyWlLk6GJQsqaUBKTNV-1">
          <mxGeometry width="100" relative="1" as="geometry">
            <mxPoint x="1890" y="-27730" as="sourcePoint" />
            <mxPoint x="1938.45" y="-27730" as="targetPoint" />
            <Array as="points" />
          </mxGeometry>
        </mxCell>
        <mxCell id="lw6VuNm43LP3gDmTV3IB-38" value="" style="edgeStyle=none;orthogonalLoop=1;jettySize=auto;html=1;rounded=0;" edge="1" parent="WIyWlLk6GJQsqaUBKTNV-1">
          <mxGeometry width="100" relative="1" as="geometry">
            <mxPoint x="3039.96" y="-27290" as="sourcePoint" />
            <mxPoint x="3089.96" y="-27290" as="targetPoint" />
            <Array as="points" />
          </mxGeometry>
        </mxCell>
        <mxCell id="lw6VuNm43LP3gDmTV3IB-39" value="" style="edgeStyle=none;orthogonalLoop=1;jettySize=auto;html=1;rounded=0;" edge="1" parent="WIyWlLk6GJQsqaUBKTNV-1">
          <mxGeometry width="100" relative="1" as="geometry">
            <mxPoint x="3310" y="-27150" as="sourcePoint" />
            <mxPoint x="3365" y="-27150" as="targetPoint" />
            <Array as="points" />
          </mxGeometry>
        </mxCell>
        <mxCell id="lw6VuNm43LP3gDmTV3IB-40" value="" style="edgeStyle=none;orthogonalLoop=1;jettySize=auto;html=1;rounded=0;" edge="1" parent="WIyWlLk6GJQsqaUBKTNV-1">
          <mxGeometry width="100" relative="1" as="geometry">
            <mxPoint x="3410" y="-26840" as="sourcePoint" />
            <mxPoint x="3450" y="-26840" as="targetPoint" />
            <Array as="points" />
          </mxGeometry>
        </mxCell>
        <mxCell id="lw6VuNm43LP3gDmTV3IB-41" value="" style="edgeStyle=none;orthogonalLoop=1;jettySize=auto;html=1;rounded=0;" edge="1" parent="WIyWlLk6GJQsqaUBKTNV-1">
          <mxGeometry width="100" relative="1" as="geometry">
            <mxPoint x="3041.86" y="-26900" as="sourcePoint" />
            <mxPoint x="3081.86" y="-26900" as="targetPoint" />
            <Array as="points" />
          </mxGeometry>
        </mxCell>
        <mxCell id="lw6VuNm43LP3gDmTV3IB-42" value="" style="edgeStyle=none;orthogonalLoop=1;jettySize=auto;html=1;rounded=0;" edge="1" parent="WIyWlLk6GJQsqaUBKTNV-1">
          <mxGeometry width="100" relative="1" as="geometry">
            <mxPoint x="2540" y="-27000" as="sourcePoint" />
            <mxPoint x="2570" y="-27000" as="targetPoint" />
            <Array as="points" />
          </mxGeometry>
        </mxCell>
        <mxCell id="lw6VuNm43LP3gDmTV3IB-43" value="" style="edgeStyle=none;orthogonalLoop=1;jettySize=auto;html=1;rounded=0;" edge="1" parent="WIyWlLk6GJQsqaUBKTNV-1">
          <mxGeometry width="100" relative="1" as="geometry">
            <mxPoint x="2455" y="-26921" as="sourcePoint" />
            <mxPoint x="2505" y="-26921" as="targetPoint" />
            <Array as="points" />
          </mxGeometry>
        </mxCell>
        <mxCell id="lw6VuNm43LP3gDmTV3IB-44" value="" style="edgeStyle=none;orthogonalLoop=1;jettySize=auto;html=1;rounded=0;" edge="1" parent="WIyWlLk6GJQsqaUBKTNV-1">
          <mxGeometry width="100" relative="1" as="geometry">
            <mxPoint x="2720" y="-26740" as="sourcePoint" />
            <mxPoint x="2773.8" y="-26740" as="targetPoint" />
            <Array as="points" />
          </mxGeometry>
        </mxCell>
        <mxCell id="lw6VuNm43LP3gDmTV3IB-46" value="" style="edgeStyle=none;orthogonalLoop=1;jettySize=auto;html=1;rounded=0;" edge="1" parent="WIyWlLk6GJQsqaUBKTNV-1">
          <mxGeometry width="100" relative="1" as="geometry">
            <mxPoint x="2847.39" y="-26563" as="sourcePoint" />
            <mxPoint x="2887.39" y="-26563" as="targetPoint" />
            <Array as="points" />
          </mxGeometry>
        </mxCell>
        <mxCell id="lw6VuNm43LP3gDmTV3IB-47" value="" style="edgeStyle=none;orthogonalLoop=1;jettySize=auto;html=1;rounded=0;" edge="1" parent="WIyWlLk6GJQsqaUBKTNV-1">
          <mxGeometry width="100" relative="1" as="geometry">
            <mxPoint x="2415" y="-26700" as="sourcePoint" />
            <mxPoint x="2466.25" y="-26700" as="targetPoint" />
            <Array as="points" />
          </mxGeometry>
        </mxCell>
        <mxCell id="lw6VuNm43LP3gDmTV3IB-48" value="" style="edgeStyle=none;orthogonalLoop=1;jettySize=auto;html=1;rounded=0;" edge="1" parent="WIyWlLk6GJQsqaUBKTNV-1">
          <mxGeometry width="100" relative="1" as="geometry">
            <mxPoint x="2180" y="-26540" as="sourcePoint" />
            <mxPoint x="2226.37" y="-26540" as="targetPoint" />
            <Array as="points" />
          </mxGeometry>
        </mxCell>
        <mxCell id="lw6VuNm43LP3gDmTV3IB-49" value="" style="edgeStyle=none;orthogonalLoop=1;jettySize=auto;html=1;rounded=0;" edge="1" parent="WIyWlLk6GJQsqaUBKTNV-1">
          <mxGeometry width="100" relative="1" as="geometry">
            <mxPoint x="1606.6" y="-26540" as="sourcePoint" />
            <mxPoint x="1645.05" y="-26540" as="targetPoint" />
            <Array as="points" />
          </mxGeometry>
        </mxCell>
        <mxCell id="lw6VuNm43LP3gDmTV3IB-50" value="" style="edgeStyle=none;orthogonalLoop=1;jettySize=auto;html=1;rounded=0;" edge="1" parent="WIyWlLk6GJQsqaUBKTNV-1">
          <mxGeometry width="100" relative="1" as="geometry">
            <mxPoint x="1810" y="-26777" as="sourcePoint" />
            <mxPoint x="1860" y="-26777.5" as="targetPoint" />
            <Array as="points" />
          </mxGeometry>
        </mxCell>
        <mxCell id="lw6VuNm43LP3gDmTV3IB-52" value="" style="edgeStyle=none;orthogonalLoop=1;jettySize=auto;html=1;rounded=0;" edge="1" parent="WIyWlLk6GJQsqaUBKTNV-1">
          <mxGeometry width="100" relative="1" as="geometry">
            <mxPoint x="1700" y="-26720" as="sourcePoint" />
            <mxPoint x="1750" y="-26720" as="targetPoint" />
            <Array as="points" />
          </mxGeometry>
        </mxCell>
        <mxCell id="lw6VuNm43LP3gDmTV3IB-53" value="" style="edgeStyle=none;orthogonalLoop=1;jettySize=auto;html=1;rounded=0;" edge="1" parent="WIyWlLk6GJQsqaUBKTNV-1">
          <mxGeometry width="100" relative="1" as="geometry">
            <mxPoint x="1260" y="-26630" as="sourcePoint" />
            <mxPoint x="1310" y="-26630" as="targetPoint" />
            <Array as="points" />
          </mxGeometry>
        </mxCell>
        <mxCell id="lw6VuNm43LP3gDmTV3IB-54" value="" style="edgeStyle=none;orthogonalLoop=1;jettySize=auto;html=1;rounded=0;" edge="1" parent="WIyWlLk6GJQsqaUBKTNV-1">
          <mxGeometry width="100" relative="1" as="geometry">
            <mxPoint x="1380" y="-26490" as="sourcePoint" />
            <mxPoint x="1420" y="-26490" as="targetPoint" />
            <Array as="points" />
          </mxGeometry>
        </mxCell>
        <mxCell id="lw6VuNm43LP3gDmTV3IB-55" value="" style="edgeStyle=none;orthogonalLoop=1;jettySize=auto;html=1;rounded=0;" edge="1" parent="WIyWlLk6GJQsqaUBKTNV-1">
          <mxGeometry width="100" relative="1" as="geometry">
            <mxPoint x="690" y="-26610" as="sourcePoint" />
            <mxPoint x="740" y="-26610" as="targetPoint" />
            <Array as="points" />
          </mxGeometry>
        </mxCell>
        <mxCell id="lw6VuNm43LP3gDmTV3IB-56" value="" style="edgeStyle=none;orthogonalLoop=1;jettySize=auto;html=1;rounded=0;" edge="1" parent="WIyWlLk6GJQsqaUBKTNV-1">
          <mxGeometry width="100" relative="1" as="geometry">
            <mxPoint x="2930" y="-26100" as="sourcePoint" />
            <mxPoint x="2970" y="-26100" as="targetPoint" />
            <Array as="points" />
          </mxGeometry>
        </mxCell>
      </root>
    </mxGraphModel>
  </diagram>
</mxfile>
